<svg width="24" height="22" viewBox="0 0 24 22" fill="none" xmlns="http://www.w3.org/2000/svg">
<path d="M7.68138 10.062C7.09027 9.89179 6.49915 9.80543 5.92415 9.80543C5.03622 9.80543 4.29532 10.0083 3.72082 10.2568C4.27467 8.22922 5.60518 4.73062 8.25562 4.33663C8.50108 4.30013 8.70223 4.12264 8.7692 3.88373L9.34848 1.81181C9.39732 1.63659 9.36837 1.44904 9.26842 1.29698C9.16848 1.14492 9.00786 1.04347 8.82786 1.0188C8.63225 0.99211 8.43286 0.978516 8.23523 0.978516C5.05385 0.978516 1.90317 4.29912 0.573671 9.0537C-0.206759 11.8431 -0.435601 16.0368 1.48678 18.6764C2.56251 20.1534 4.13193 20.9422 6.15148 21.021C6.15979 21.0212 6.16785 21.0215 6.17616 21.0215C8.66799 21.0215 10.8776 19.3433 11.5498 16.9408C11.9513 15.5046 11.7698 13.9984 11.0382 12.6986C10.3145 11.4134 9.12241 10.4766 7.68138 10.062Z" fill="url(#paint0_linear_425_11173)"/>
<path d="M23.2802 12.6988C22.5564 11.4134 21.3644 10.4766 19.9233 10.062C19.3322 9.89179 18.7411 9.80543 18.1664 9.80543C17.2784 9.80543 16.5373 10.0083 15.9628 10.2568C16.5166 8.22922 17.8471 4.73062 20.4978 4.33663C20.7433 4.30013 20.9442 4.12264 21.0114 3.88373L21.5907 1.81181C21.6395 1.63659 21.6106 1.44904 21.5106 1.29698C21.4109 1.14492 21.2503 1.04347 21.0701 1.0188C20.8747 0.99211 20.6753 0.978516 20.4774 0.978516C17.2961 0.978516 14.1454 4.29912 12.8156 9.0537C12.0355 11.8431 11.8066 16.0368 13.7292 18.6769C14.8047 20.1537 16.3744 20.9427 18.3937 21.0212C18.402 21.0215 18.4101 21.0217 18.4186 21.0217C20.9102 21.0217 23.1201 19.3436 23.7923 16.9411C24.1933 15.5048 24.0115 13.9984 23.2802 12.6988Z" fill="url(#paint1_linear_425_11173)"/>
<defs>
<linearGradient id="paint0_linear_425_11173" x1="8.73823e-08" y1="10.9185" x2="11.7586" y2="10.9185" gradientUnits="userSpaceOnUse">
<stop stop-color="#0C53B1"/>
<stop offset="1" stop-color="#083A7C"/>
</linearGradient>
<linearGradient id="paint1_linear_425_11173" x1="12.2422" y1="10.9186" x2="24.0006" y2="10.9186" gradientUnits="userSpaceOnUse">
<stop stop-color="#0C53B1"/>
<stop offset="1" stop-color="#083A7C"/>
</linearGradient>
</defs>
</svg>
