<svg width="36" height="38" viewBox="0 0 36 38" fill="none" xmlns="http://www.w3.org/2000/svg">
<path d="M28.6114 8.19359C22.7586 2.16985 13.2404 2.16985 7.38767 8.19359C1.53744 14.2173 1.53744 24.0182 7.38767 30.042C10.314 33.0532 14.1571 34.5581 18.0002 34.5581C21.8433 34.5581 25.685 33.0531 28.6114 30.042C34.4629 24.0183 34.4629 14.2173 28.6114 8.19359ZM24.1893 23.6694C24.6782 24.1727 24.6782 24.9864 24.1893 25.4897C23.9454 25.7408 23.6253 25.8669 23.3051 25.8669C22.985 25.8669 22.6648 25.7408 22.4209 25.4897L18.0001 20.9375L13.5805 25.4884C13.3354 25.7394 13.0152 25.8656 12.6963 25.8656C12.3762 25.8656 12.056 25.7394 11.8122 25.4884C11.3232 24.985 11.3232 24.1701 11.8122 23.668L16.2317 19.1171L11.8109 14.5662C11.322 14.0628 11.322 13.2479 11.8109 12.7458C12.2987 12.2425 13.0903 12.2425 13.5792 12.7458L18 17.2968L22.4208 12.7458C22.9098 12.2425 23.7002 12.2425 24.1892 12.7458C24.6781 13.2479 24.6781 14.0628 24.1892 14.5662L19.7684 19.1171L24.1893 23.6694Z" fill="#E43429"/>
</svg>
