<svg width="36" height="38" viewBox="0 0 36 38" fill="none" xmlns="http://www.w3.org/2000/svg">
<path d="M28.7069 7.09327C28.5194 6.88285 28.265 6.76465 27.9999 6.76465C27.7347 6.76465 27.4804 6.88285 27.2929 7.09327L24.1189 10.6557C22.2115 9.60975 20.1225 9.04762 17.9999 9.00917C9.874 9.00917 3.48103 18.0342 3.21304 18.4181C3.07501 18.6157 3 18.8595 3 19.1106C3 19.3617 3.07501 19.6055 3.21304 19.8031C5.14737 22.4269 7.45233 24.6765 10.036 26.4622L7.29301 29.5408C7.1975 29.6444 7.12132 29.7682 7.06891 29.9052C7.0165 30.0421 6.98892 30.1894 6.98776 30.3384C6.98661 30.4874 7.01191 30.6352 7.06219 30.7732C7.11247 30.9111 7.18672 31.0364 7.28062 31.1418C7.37451 31.2472 7.48616 31.3305 7.60906 31.387C7.73195 31.4434 7.86363 31.4718 7.99641 31.4705C8.12919 31.4692 8.26041 31.4382 8.38241 31.3794C8.50441 31.3206 8.61476 31.2351 8.707 31.1279L28.7069 8.68031C28.8944 8.46983 28.9997 8.1844 28.9997 7.88679C28.9997 7.58917 28.8944 7.30374 28.7069 7.09327V7.09327ZM13 19.1106C13.0016 17.6228 13.5289 16.1964 14.4662 15.1443C15.4035 14.0923 16.6744 13.5005 17.9999 13.4987C18.9749 13.5064 19.9256 13.841 20.7299 14.4594L13.856 22.1747C13.305 21.2719 13.0069 20.2049 13 19.1106V19.1106Z" fill="#2753B8"/>
<path d="M32.787 18.4175C31.2909 16.3828 29.572 14.5682 27.671 13.0166L22.9301 18.3378C22.9697 18.593 22.9931 18.8511 23.0001 19.11C22.9985 20.5978 22.4712 22.0242 21.5339 23.0762C20.5965 24.1283 19.3257 24.7201 18.0001 24.7219C17.7694 24.714 17.5395 24.6878 17.3121 24.6433L13.9121 28.4594C15.2323 28.9441 16.6111 29.1978 18.0001 29.2114C26.1261 29.2114 32.519 20.1864 32.787 19.8025C32.9251 19.6049 33.0001 19.3611 33.0001 19.11C33.0001 18.8589 32.9251 18.6151 32.787 18.4175V18.4175Z" fill="#0EA80F"/>
</svg>
