<svg width="36" height="38" viewBox="0 0 36 38" fill="none" xmlns="http://www.w3.org/2000/svg">
<path d="M25.5 17.5723C21.3644 17.5723 18 21.0357 18 25.2927C18 29.55 21.3644 33.0134 25.5 33.0134C29.6356 33.0134 33 29.55 33 25.2927C33 21.0355 29.6356 17.5723 25.5 17.5723V17.5723ZM28.6565 26.2448H25.4421C24.9635 26.2448 24.5753 25.8452 24.5753 25.3523V22.0436C24.5753 21.5507 24.9635 21.1511 25.4421 21.1511C25.9209 21.1511 26.3091 21.5507 26.3091 22.0436V24.4599H28.6565C29.1351 24.4599 29.5232 24.8594 29.5232 25.3523C29.5232 25.8452 29.1353 26.2448 28.6565 26.2448V26.2448Z" fill="#2753B8"/>
<path d="M13.2012 12.3477L15.0553 11.571C15.2815 11.4762 15.536 11.4762 15.7621 11.571L17.616 12.3477V5.2207H13.2012V12.3477Z" fill="#E7F6E7"/>
<path d="M25.0837 15.3458C26.0324 15.3458 26.9495 15.4827 27.8172 15.7369V7.46965C27.8172 6.22955 26.8088 5.2207 25.5691 5.2207H19.4459V13.7233C19.4459 14.0297 19.2928 14.3157 19.0378 14.4853C18.8854 14.5868 18.7087 14.6385 18.5309 14.6385C18.4112 14.6385 18.2912 14.6151 18.1775 14.5675L15.4085 13.4078L12.6395 14.5675C12.3573 14.6859 12.0343 14.655 11.7794 14.4853C11.5244 14.3157 11.3713 14.0297 11.3713 13.7233V5.2207H5.24806C4.00844 5.2207 3 6.22955 3 7.46965V27.7988C3 29.0389 4.00844 30.0478 5.24806 30.0478H16.6916C15.8321 28.5954 15.3378 26.9024 15.3378 25.0958C15.3378 19.7196 19.7098 15.3458 25.0837 15.3458V15.3458Z" fill="#0EA80F"/>
</svg>
