<svg width="36" height="38" viewBox="0 0 36 38" fill="none" xmlns="http://www.w3.org/2000/svg">
<path d="M29.7331 3.67578H19.7669C17.9625 3.67578 16.5 5.10006 16.5 6.86297V21.4475C16.5 22.0663 17.2273 22.4281 17.7406 22.0527L20.8558 19.7732H29.7331C31.5375 19.7732 33 18.349 33 16.5861V6.86297C33 5.10262 31.5401 3.67578 29.7331 3.67578V3.67578ZM23.9745 15.722H20.5974C20.1691 15.722 19.822 15.3834 19.822 14.9656C19.822 14.5477 20.1691 14.2091 20.5974 14.2091H23.9745C24.4028 14.2091 24.7499 14.5477 24.7499 14.9656C24.7499 15.3834 24.4028 15.722 23.9745 15.722ZM28.9026 12.4811H20.5974C20.1691 12.4811 19.822 12.1422 19.822 11.7246C19.822 11.3068 20.1691 10.9681 20.5974 10.9681H28.9026C29.3307 10.9681 29.678 11.3068 29.678 11.7246C29.678 12.1422 29.3309 12.4811 28.9026 12.4811V12.4811ZM28.9026 9.23991H20.5974C20.1691 9.23991 19.822 8.90128 19.822 8.48345C19.822 8.06582 20.1691 7.72699 20.5974 7.72699H28.9026C29.3307 7.72699 29.678 8.06582 29.678 8.48345C29.678 8.90128 29.3309 9.23991 28.9026 9.23991V9.23991Z" fill="#0EA80F"/>
<path d="M14.2409 21.8503C14.2409 24.2124 12.3808 26.1272 10.0863 26.1272C7.79176 26.1272 5.93164 24.2124 5.93164 21.8503C5.93164 19.4881 7.79176 17.5732 10.0863 17.5732C12.3808 17.5732 14.2409 19.4881 14.2409 21.8503Z" fill="#2753B8"/>
<path d="M10.0858 26.127C7.00099 26.127 4.5 28.7015 4.5 31.8771V33.0149C4.5 33.5146 4.89345 33.9196 5.3789 33.9196H14.793C15.2782 33.9196 15.6719 33.5146 15.6719 33.0149V31.8771C15.6719 28.7015 13.1709 26.127 10.0858 26.127V26.127Z" fill="#2753B8"/>
</svg>
