<svg width="36" height="38" viewBox="0 0 36 38" fill="none" xmlns="http://www.w3.org/2000/svg">
<path d="M26.2617 27.3197C28.3651 27.3197 30.0703 25.5644 30.0703 23.3991C30.0703 21.2338 28.3651 19.4785 26.2617 19.4785C24.1583 19.4785 22.4531 21.2338 22.4531 23.3991C22.4531 25.5644 24.1583 27.3197 26.2617 27.3197Z" fill="#2753B8"/>
<path d="M30.1806 27.4648C29.1739 28.4933 27.7887 29.1297 26.2617 29.1297C24.7347 29.1297 23.3496 28.4933 22.3429 27.4648C20.6605 28.4517 19.5234 30.3152 19.5234 32.4471V33.6534C19.5234 34.1531 19.917 34.5582 20.4023 34.5582H32.1211C32.6065 34.5582 33 34.1531 33 33.6534V32.4471C33 30.3152 31.863 28.4517 30.1806 27.4648Z" fill="#2753B8"/>
<path d="M9.73828 11.517C11.8417 11.517 13.5469 9.76169 13.5469 7.59639C13.5469 5.4311 11.8417 3.67578 9.73828 3.67578C7.63485 3.67578 5.92969 5.4311 5.92969 7.59639C5.92969 9.76169 7.63485 11.517 9.73828 11.517Z" fill="#0EA80F"/>
<path d="M16.4766 17.8507V16.6444C16.4766 14.5125 15.3396 12.649 13.6572 11.6621C12.6505 12.6906 11.2653 13.3269 9.73828 13.3269C8.21127 13.3269 6.82611 12.6906 5.81941 11.6621C4.13701 12.649 3 14.5125 3 16.6444V17.8507C3 18.3504 3.39352 18.7555 3.87891 18.7555H15.5977C16.083 18.7555 16.4766 18.3504 16.4766 17.8507Z" fill="#0EA80F"/>
<path d="M26.2617 7.29481V12.0532H24.8864C24.1313 12.0532 23.7277 12.9687 24.2249 13.5537L27.3581 17.2398C27.7082 17.6517 28.3308 17.6517 28.6809 17.2398L31.814 13.5537C32.3113 12.9687 31.9077 12.0532 31.1526 12.0532H29.7773V5.48529C29.7773 4.4859 28.9904 3.67578 28.0195 3.67578H20.1094C19.624 3.67578 19.2305 4.08087 19.2305 4.58054V6.39005C19.2305 6.88972 19.624 7.29481 20.1094 7.29481H26.2617Z" fill="#E7F6E7"/>
<path d="M15.8906 30.9395H9.7383V26.1811H11.1136C11.8687 26.1811 12.2723 25.2656 11.7751 24.6806L8.64196 20.9945C8.2918 20.5826 7.66924 20.5826 7.31908 20.9945L4.18596 24.6806C3.68873 25.2656 4.09227 26.1811 4.84743 26.1811H6.22268V32.749C6.22268 33.7484 7.00965 34.5585 7.98049 34.5585H15.8906C16.376 34.5585 16.7695 34.1534 16.7695 33.6537V31.8442C16.7695 31.3446 16.376 30.9395 15.8906 30.9395Z" fill="#F2F5FC"/>
</svg>
