<svg width="36" height="38" viewBox="0 0 36 38" fill="none" xmlns="http://www.w3.org/2000/svg">
<path fill-rule="evenodd" clip-rule="evenodd" d="M10.5 3.67578C11.3284 3.67578 12 4.36711 12 5.2199V6.76402H24V5.2199C24 4.36711 24.6716 3.67578 25.5 3.67578C26.3285 3.67578 27 4.36711 27 5.2199V6.76402H28.5C30.9854 6.76402 33 8.838 33 11.3964V20.6611C33 21.5139 32.3285 22.2052 31.5 22.2052H22.5C19.1864 22.2052 16.5 24.9706 16.5 28.3817V33.014C16.5 33.8668 15.8285 34.5581 15 34.5581H7.5C5.01473 34.5581 3 32.4842 3 29.9258V11.3964C3 8.838 5.01473 6.76402 7.5 6.76402H9V5.2199C9 4.36711 9.67158 3.67578 10.5 3.67578Z" fill="#2753B8"/>
<path d="M19.9393 27.9289C19.3536 27.3259 19.3536 26.3482 19.9393 25.7452C20.5251 25.1422 21.4749 25.1422 22.0606 25.7452L25.0606 28.8334C25.6464 29.4364 25.6464 30.4142 25.0606 31.0171L22.0606 34.1054C21.4749 34.7083 20.5251 34.7083 19.9393 34.1054C19.3536 33.5024 19.3536 32.5247 19.9393 31.9217L21.8787 29.9253L19.9393 27.9289Z" fill="#E7F6E7"/>
<path d="M27.4393 27.9289C26.8536 27.3259 26.8536 26.3482 27.4393 25.7452C28.0251 25.1422 28.9749 25.1422 29.5606 25.7452L32.5606 28.8334C33.1464 29.4364 33.1464 30.4142 32.5606 31.0171L29.5606 34.1054C28.9749 34.7083 28.0251 34.7083 27.4393 34.1054C26.8536 33.5024 26.8536 32.5247 27.4393 31.9217L29.3787 29.9253L27.4393 27.9289Z" fill="#0EA80F"/>
</svg>
