<svg width="20" height="20" viewBox="0 0 20 20" fill="none" xmlns="http://www.w3.org/2000/svg">
<path fill-rule="evenodd" clip-rule="evenodd" d="M13.9377 3.18075H6.36192C5.52512 3.18075 4.84677 3.85911 4.84677 4.6959V15.302C4.84677 16.1388 5.52512 16.8171 6.36192 16.8171H13.9377C14.7745 16.8171 15.4528 16.1388 15.4528 15.302V4.6959C15.4528 3.85911 14.7745 3.18075 13.9377 3.18075ZM6.36429 1.66797C4.6907 1.66797 3.33398 3.02468 3.33398 4.69827V15.3043C3.33398 16.9779 4.6907 18.3346 6.36429 18.3346H13.94C15.6136 18.3346 16.9703 16.9779 16.9703 15.3043V4.69827C16.9703 3.02468 15.6136 1.66797 13.94 1.66797H6.36429ZM7.12423 4.70064C6.70584 4.70064 6.36666 5.03982 6.36666 5.45821C6.36666 5.87661 6.70584 6.21579 7.12423 6.21579H13.1848C13.6032 6.21579 13.9424 5.87661 13.9424 5.45821C13.9424 5.03982 13.6032 4.70064 13.1848 4.70064H7.12423ZM7.88181 8.48378C7.88181 8.90219 7.54263 9.24136 7.12423 9.24136C6.70584 9.24136 6.36666 8.90219 6.36666 8.48378C6.36666 8.06538 6.70584 7.72621 7.12423 7.72621C7.54263 7.72621 7.88181 8.06538 7.88181 8.48378ZM10.1498 9.24136C10.5682 9.24136 10.9074 8.90219 10.9074 8.48378C10.9074 8.06538 10.5682 7.72621 10.1498 7.72621C9.73139 7.72621 9.39222 8.06538 9.39222 8.48378C9.39222 8.90219 9.73139 9.24136 10.1498 9.24136ZM13.1825 9.24136C13.6009 9.24136 13.94 8.90219 13.94 8.48378C13.94 8.06538 13.6009 7.72621 13.1825 7.72621C12.7641 7.72621 12.4249 8.06538 12.4249 8.48378C12.4249 8.90219 12.7641 9.24136 13.1825 9.24136ZM7.12423 12.274C7.54263 12.274 7.88181 11.9349 7.88181 11.5165C7.88181 11.098 7.54263 10.7589 7.12423 10.7589C6.70584 10.7589 6.36666 11.098 6.36666 11.5165C6.36666 11.9349 6.70584 12.274 7.12423 12.274ZM10.1498 12.274C10.5682 12.274 10.9074 11.9349 10.9074 11.5165C10.9074 11.098 10.5682 10.7589 10.1498 10.7589C9.73139 10.7589 9.39222 11.098 9.39222 11.5165C9.39222 11.9349 9.73139 12.274 10.1498 12.274ZM13.1825 12.274C13.6009 12.274 13.94 11.9349 13.94 11.5165C13.94 11.098 13.6009 10.7589 13.1825 10.7589C12.7641 10.7589 12.4249 11.098 12.4249 11.5165C12.4249 11.9349 12.7641 12.274 13.1825 12.274ZM7.12423 15.3067C7.54263 15.3067 7.88181 14.9675 7.88181 14.5491C7.88181 14.1307 7.54263 13.7915 7.12423 13.7915C6.70584 13.7915 6.36666 14.1307 6.36666 14.5491C6.36666 14.9675 6.70584 15.3067 7.12423 15.3067ZM10.1498 15.3067C10.5682 15.3067 10.9074 14.9675 10.9074 14.5491C10.9074 14.1307 10.5682 13.7915 10.1498 13.7915C9.73139 13.7915 9.39222 14.1307 9.39222 14.5491C9.39222 14.9675 9.73139 15.3067 10.1498 15.3067ZM13.1825 15.3067C13.6009 15.3067 13.94 14.9675 13.94 14.5491C13.94 14.1307 13.6009 13.7915 13.1825 13.7915C12.7641 13.7915 12.4249 14.1307 12.4249 14.5491C12.4249 14.9675 12.7641 15.3067 13.1825 15.3067Z" fill="white"/>
</svg>
