<svg id="Layer_1" data-name="Layer 1" xmlns="http://www.w3.org/2000/svg" width="13.64" height="16.67" viewBox="0 0 13.64 16.67"><defs><style>.cls-1{fill:#2753b8;fill-rule:evenodd;}</style></defs><path class="cls-1" d="M13.94,3.18H6.36A1.52,1.52,0,0,0,4.85,4.7V15.3a1.52,1.52,0,0,0,1.51,1.52h7.58a1.52,1.52,0,0,0,1.51-1.52V4.7A1.52,1.52,0,0,0,13.94,3.18ZM6.36,1.67a3,3,0,0,0-3,3V15.3a3,3,0,0,0,3,3h7.58a3,3,0,0,0,3-3V4.7a3,3,0,0,0-3-3Zm.76,3a.76.76,0,0,0,0,1.52h6.06a.76.76,0,0,0,0-1.52Zm.76,3.78a.76.76,0,1,1-.76-.75A.76.76,0,0,1,7.88,8.48Zm2.27.76a.76.76,0,1,0-.76-.76A.76.76,0,0,0,10.15,9.24Zm3,0a.76.76,0,1,0-.76-.76A.76.76,0,0,0,13.18,9.24Zm-6.06,3a.76.76,0,1,0-.75-.75A.76.76,0,0,0,7.12,12.27Zm3,0a.76.76,0,1,0-.76-.75A.76.76,0,0,0,10.15,12.27Zm3,0a.76.76,0,1,0-.76-.75A.76.76,0,0,0,13.18,12.27Zm-6.06,3a.76.76,0,1,0-.75-.76A.76.76,0,0,0,7.12,15.31Zm3,0a.76.76,0,1,0-.76-.76A.76.76,0,0,0,10.15,15.31Zm3,0a.76.76,0,1,0-.76-.76A.76.76,0,0,0,13.18,15.31Z" transform="translate(-3.33 -1.67)"/></svg>