<svg width="8" height="14" viewBox="0 0 8 14" fill="none" xmlns="http://www.w3.org/2000/svg">
<path d="M6.39736 4.88079L1.80736 0.290792C1.62 0.104542 1.36655 0 1.10236 0C0.838175 0 0.584723 0.104542 0.397361 0.290792C0.303632 0.383756 0.229238 0.494357 0.17847 0.616216C0.127701 0.738075 0.101562 0.868781 0.101562 1.00079C0.101562 1.1328 0.127701 1.26351 0.17847 1.38537C0.229238 1.50723 0.303632 1.61783 0.397361 1.71079L4.99736 6.29079C5.09109 6.38376 5.16548 6.49436 5.21625 6.61622C5.26702 6.73808 5.29316 6.86878 5.29316 7.00079C5.29316 7.13281 5.26702 7.26351 5.21625 7.38537C5.16548 7.50723 5.09109 7.61783 4.99736 7.71079L0.397361 12.2908C0.209057 12.4778 0.102742 12.7319 0.101805 12.9973C0.100867 13.2626 0.205384 13.5175 0.392362 13.7058C0.579339 13.8941 0.833462 14.0004 1.09883 14.0014C1.36419 14.0023 1.61906 13.8978 1.80736 13.7108L6.39736 9.12079C6.95916 8.55829 7.27472 7.7958 7.27472 7.00079C7.27472 6.20579 6.95916 5.44329 6.39736 4.88079Z" fill="#272B36"/>
</svg>
