<svg width="20" height="20" viewBox="0 0 20 20" fill="none" xmlns="http://www.w3.org/2000/svg">
<path fill-rule="evenodd" clip-rule="evenodd" d="M5.83398 1.58398C5.50029 1.58398 5.22982 1.8545 5.22982 2.18815V2.88607H3.81576C2.58506 2.88607 1.58398 3.88715 1.58398 5.11784V16.1855C1.58398 17.4162 2.58506 18.4173 3.81576 18.4173H16.1855C17.4162 18.4173 18.4173 17.4162 18.4173 16.1855V5.11784C18.4173 3.88715 17.4162 2.88607 16.1855 2.88607H14.7715V2.18815C14.7715 1.8545 14.501 1.58398 14.1673 1.58398C13.8336 1.58398 13.5632 1.8545 13.5632 2.18815V2.88607H6.43815V2.18815C6.43815 1.8545 6.16767 1.58398 5.83398 1.58398ZM2.79232 5.11784C2.79232 4.55358 3.25149 4.0944 3.81576 4.0944H5.22982V4.5319C5.22982 4.86555 5.50029 5.13607 5.83398 5.13607C6.16767 5.13607 6.43815 4.86555 6.43815 4.5319V4.0944H13.5632V4.5319C13.5632 4.86555 13.8336 5.13607 14.1673 5.13607C14.501 5.13607 14.7715 4.86555 14.7715 4.5319V4.0944H16.1855C16.7498 4.0944 17.209 4.55358 17.209 5.11784V6.27148H2.79232V5.11784ZM2.79232 16.1855V7.47982H17.209V16.1855C17.209 16.7498 16.7498 17.209 16.1855 17.209H3.81576C3.25149 17.209 2.79232 16.7498 2.79232 16.1855ZM4.40169 9.91732C4.06802 9.91732 3.79753 10.1878 3.79753 10.5215C3.79753 10.8552 4.06802 11.1257 4.40169 11.1257H6.77799C7.11167 11.1257 7.38216 10.8552 7.38216 10.5215C7.38216 10.1878 7.11167 9.91732 6.77799 9.91732H4.40169ZM8.79622 9.91732C8.46255 9.91732 8.19206 10.1878 8.19206 10.5215C8.19206 10.8552 8.46255 11.1257 8.79622 11.1257H11.1725C11.5062 11.1257 11.7767 10.8552 11.7767 10.5215C11.7767 10.1878 11.5062 9.91732 11.1725 9.91732H8.79622ZM13.1908 9.91732C12.8571 9.91732 12.5866 10.1878 12.5866 10.5215C12.5866 10.8552 12.8571 11.1257 13.1908 11.1257H15.5671C15.9007 11.1257 16.1712 10.8552 16.1712 10.5215C16.1712 10.1878 15.9007 9.91732 15.5671 9.91732H13.1908ZM4.40169 13.5632C4.06802 13.5632 3.79753 13.8336 3.79753 14.1673C3.79753 14.501 4.06802 14.7715 4.40169 14.7715H6.77799C7.11167 14.7715 7.38216 14.501 7.38216 14.1673C7.38216 13.8336 7.11167 13.5632 6.77799 13.5632H4.40169ZM8.79622 13.5632C8.46255 13.5632 8.19206 13.8336 8.19206 14.1673C8.19206 14.501 8.46255 14.7715 8.79622 14.7715H11.1725C11.5062 14.7715 11.7767 14.501 11.7767 14.1673C11.7767 13.8336 11.5062 13.5632 11.1725 13.5632H8.79622ZM13.1908 13.5632C12.8571 13.5632 12.5866 13.8336 12.5866 14.1673C12.5866 14.501 12.8571 14.7715 13.1908 14.7715H15.5671C15.9007 14.7715 16.1712 14.501 16.1712 14.1673C16.1712 13.8336 15.9007 13.5632 15.5671 13.5632H13.1908Z" fill="white"/>
</svg>
