<svg width="23" height="20" viewBox="0 0 23 20" fill="none" xmlns="http://www.w3.org/2000/svg">
<path d="M19.2332 2.92582C14.9866 -0.975273 8.08051 -0.975273 3.83395 2.92582C-0.410794 6.82691 -0.410794 13.1742 3.83395 17.0752C5.95723 19.0254 8.74561 20 11.534 20C14.3225 20 17.1099 19.0253 19.2332 17.0752C23.4789 13.1742 23.4789 6.82691 19.2332 2.92582ZM16.0247 12.9482C16.3794 13.2742 16.3794 13.8011 16.0247 14.1271C15.8477 14.2897 15.6155 14.3714 15.3831 14.3714C15.1509 14.3714 14.9185 14.2897 14.7416 14.1271L11.534 11.179L8.3273 14.1263C8.14946 14.2888 7.91714 14.3706 7.68576 14.3706C7.45348 14.3706 7.22116 14.2888 7.04422 14.1263C6.68945 13.8003 6.68945 13.2725 7.04422 12.9474L10.2509 10.0001L7.04333 7.05284C6.68855 6.72686 6.68855 6.1991 7.04333 5.87394C7.39721 5.54796 7.97159 5.54796 8.32636 5.87394L11.534 8.82121L14.7416 5.87394C15.0963 5.54796 15.6698 5.54796 16.0246 5.87394C16.3794 6.1991 16.3794 6.72686 16.0246 7.05284L12.817 10.0001L16.0247 12.9482Z" fill="#545761"/>
</svg>
