<svg id="Layer_1" data-name="Layer 1" xmlns="http://www.w3.org/2000/svg" width="16.67" height="13.64" viewBox="0 0 16.67 13.64"><defs><style>.cls-1{fill:#2753b8;fill-rule:evenodd;}</style></defs><path class="cls-1" d="M3.94,4.84H16.06a.76.76,0,0,1,.76.76V7.12H3.18V5.6A.76.76,0,0,1,3.94,4.84ZM1.67,8.63v-3A2.27,2.27,0,0,1,3.94,3.33H16.06A2.27,2.27,0,0,1,18.33,5.6v9.1A2.27,2.27,0,0,1,16.06,17H3.94A2.27,2.27,0,0,1,1.67,14.7Zm15.15,0v6.06a.76.76,0,0,1-.76.76H3.94a.76.76,0,0,1-.76-.76V8.63Zm-11,5.31A1.14,1.14,0,1,0,4.7,12.8,1.14,1.14,0,0,0,5.84,13.94Zm4.92-1.14a1.14,1.14,0,1,1-1.14-1.14A1.14,1.14,0,0,1,10.76,12.8Z" transform="translate(-1.67 -3.33)"/></svg>