<svg width="20" height="20" viewBox="0 0 20 20" fill="none" xmlns="http://www.w3.org/2000/svg">
<path fill-rule="evenodd" clip-rule="evenodd" d="M3.93638 4.84482H16.0576C16.476 4.84482 16.8152 5.184 16.8152 5.60239V7.11754H3.1788V5.60239C3.1788 5.184 3.51798 4.84482 3.93638 4.84482ZM1.66602 8.63269V7.11754V5.60476C1.66602 4.34957 2.68355 3.33203 3.93874 3.33203H16.06C17.3152 3.33203 18.3327 4.34957 18.3327 5.60476V7.11754V8.63269V14.6957C18.3327 15.9509 17.3152 16.9684 16.06 16.9684H3.93874C2.68355 16.9684 1.66602 15.9509 1.66602 14.6957V8.63269ZM16.8152 8.63269V14.6933C16.8152 15.1117 16.476 15.4509 16.0576 15.4509H3.93638C3.51798 15.4509 3.1788 15.1117 3.1788 14.6933V8.63269H16.8152ZM5.83505 13.9357C6.46265 13.9357 6.97141 13.4269 6.97141 12.7994C6.97141 12.1718 6.46265 11.663 5.83505 11.663C5.20745 11.663 4.69869 12.1718 4.69869 12.7994C4.69869 13.4269 5.20745 13.9357 5.83505 13.9357ZM10.7569 12.7994C10.7569 13.4269 10.2481 13.9357 9.62056 13.9357C8.99299 13.9357 8.4842 13.4269 8.4842 12.7994C8.4842 12.1718 8.99299 11.663 9.62056 11.663C10.2481 11.663 10.7569 12.1718 10.7569 12.7994Z" fill="white"/>
</svg>
