<svg width="20" height="20" viewBox="0 0 20 20" fill="none" xmlns="http://www.w3.org/2000/svg">
<path fill-rule="evenodd" clip-rule="evenodd" d="M1.66602 3.16174C1.66602 2.33763 2.33763 1.66602 3.16174 1.66602H8.28995C9.11406 1.66602 9.78567 2.33763 9.78567 3.16174V16.837C9.78567 17.6611 9.11406 18.3327 8.28995 18.3327H3.16174C2.33763 18.3327 1.66602 17.6611 1.66602 16.837V3.16174ZM3.16174 2.94807C3.04569 2.94807 2.94807 3.04569 2.94807 3.16174V16.837C2.94807 16.953 3.04569 17.0506 3.16174 17.0506H8.28995C8.406 17.0506 8.50362 16.953 8.50362 16.837V3.16174C8.50362 3.04569 8.406 2.94807 8.28995 2.94807H3.16174ZM10.213 3.16174C10.213 2.33763 10.8846 1.66602 11.7088 1.66602H16.837C17.6611 1.66602 18.3327 2.33763 18.3327 3.16174V6.58055C18.3327 7.40466 17.6611 8.07627 16.837 8.07627H11.7088C10.8846 8.07627 10.213 7.40466 10.213 6.58055V3.16174ZM11.7088 2.94807C11.5927 2.94807 11.4951 3.04569 11.4951 3.16174V6.58055C11.4951 6.6966 11.5927 6.79422 11.7088 6.79422H16.837C16.953 6.79422 17.0506 6.6966 17.0506 6.58055V3.16174C17.0506 3.04569 16.953 2.94807 16.837 2.94807H11.7088ZM10.213 9.99935C10.213 9.17524 10.8846 8.50362 11.7088 8.50362H16.837C17.6611 8.50362 18.3327 9.17524 18.3327 9.99935V16.837C18.3327 17.6611 17.6611 18.3327 16.837 18.3327H11.7088C10.8846 18.3327 10.213 17.6611 10.213 16.837V9.99935ZM11.7088 9.78567C11.5927 9.78567 11.4951 9.88329 11.4951 9.99935V16.837C11.4951 16.953 11.5927 17.0506 11.7088 17.0506H16.837C16.953 17.0506 17.0506 16.953 17.0506 16.837V9.99935C17.0506 9.88329 16.953 9.78567 16.837 9.78567H11.7088Z" fill="white"/>
</svg>
