<svg width="14" height="18" viewBox="0 0 14 18" fill="none" xmlns="http://www.w3.org/2000/svg">
<path fill-rule="evenodd" clip-rule="evenodd" d="M7.90925 0.667969C8.32766 0.667969 8.66683 1.00715 8.66683 1.42554V3.69827C8.66683 4.95346 9.68433 5.971 10.9396 5.971H13.2123C13.6307 5.971 13.9699 6.31018 13.9699 6.72857V15.0619C13.9699 16.3171 12.9524 17.3346 11.6971 17.3346H2.60622C1.35103 17.3346 0.333496 16.3171 0.333496 15.0619V2.9407C0.333496 1.68551 1.35103 0.667969 2.60622 0.667969H7.90925ZM4.87658 8.99893C4.45818 8.99893 4.11901 9.3381 4.11901 9.75651C4.11901 10.1749 4.45818 10.5141 4.87658 10.5141H9.42204C9.84045 10.5141 10.1796 10.1749 10.1796 9.75651C10.1796 9.3381 9.84045 8.99893 9.42204 8.99893H4.87658ZM4.87658 12.0316C4.45818 12.0316 4.11901 12.3708 4.11901 12.7892C4.11901 13.2076 4.45818 13.5468 4.87658 13.5468H7.14931C7.56772 13.5468 7.90689 13.2076 7.90689 12.7892C7.90689 12.3708 7.56772 12.0316 7.14931 12.0316H4.87658ZM10.1843 1.42247C10.1843 1.00408 10.539 0.637579 10.9248 0.799382C11.0918 0.869428 11.2471 0.970079 11.3857 1.10868L13.5284 3.25143C13.6671 3.39002 13.7677 3.54525 13.8378 3.7123C13.9996 4.09815 13.6331 4.45278 13.2147 4.45278H10.9419C10.5235 4.45278 10.1843 4.1136 10.1843 3.6952V1.42247Z" fill="#2753B8"/>
</svg>
