<svg width="20" height="20" viewBox="0 0 20 20" fill="none" xmlns="http://www.w3.org/2000/svg">
<path fill-rule="evenodd" clip-rule="evenodd" d="M3.33398 4.69827C3.33398 3.02468 4.6907 1.66797 6.36429 1.66797H12.6848C13.4885 1.66797 14.2593 1.98723 14.8276 2.55552L16.0828 3.81072C16.6511 4.37901 16.9703 5.14978 16.9703 5.95346V15.3043C16.9703 16.9779 15.6136 18.3346 13.94 18.3346H6.36429C4.6907 18.3346 3.33398 16.9779 3.33398 15.3043V4.69827ZM15.4528 6.96863V15.302C15.4528 16.1388 14.7745 16.8171 13.9377 16.8171H6.36192C5.52512 16.8171 4.84677 16.1388 4.84677 15.302V4.6959C4.84677 3.85911 5.52512 3.18075 6.36192 3.18075H11.6649V4.6959C11.6649 5.95109 12.6824 6.96863 13.9377 6.96863H15.4528ZM15.3735 5.45466C15.2992 5.24072 15.177 5.04412 15.0138 4.8809L13.7586 3.62571C13.5954 3.4625 13.3988 3.34037 13.1848 3.26598V4.69709C13.1848 5.11548 13.524 5.45466 13.9424 5.45466H15.3735ZM7.87707 9.99893C7.45867 9.99893 7.1195 10.3381 7.1195 10.7565C7.1195 11.1749 7.45867 11.5141 7.87707 11.5141H12.4225C12.8409 11.5141 13.1801 11.1749 13.1801 10.7565C13.1801 10.3381 12.8409 9.99893 12.4225 9.99893H7.87707ZM7.1195 13.7892C7.1195 13.3708 7.45867 13.0316 7.87707 13.0316H10.1498C10.5682 13.0316 10.9074 13.3708 10.9074 13.7892C10.9074 14.2076 10.5682 14.5468 10.1498 14.5468H7.87707C7.45867 14.5468 7.1195 14.2076 7.1195 13.7892Z" fill="white"/>
</svg>
