<svg width="12" height="14" viewBox="0 0 12 14" fill="none" xmlns="http://www.w3.org/2000/svg">
<path fill-rule="evenodd" clip-rule="evenodd" d="M3.42255 3.88981C3.42255 2.45847 4.57795 1.29813 6.0032 1.29813C7.42845 1.29813 8.58384 2.45847 8.58384 3.88981C8.58384 5.32116 7.42845 6.48149 6.0032 6.48149C4.57795 6.48149 3.42255 5.32116 3.42255 3.88981ZM6.0032 0.333008C4.04719 0.333008 2.46154 1.92544 2.46154 3.88981C2.46154 5.85418 4.04719 7.44662 6.0032 7.44662C7.9592 7.44662 9.54486 5.85418 9.54486 3.88981C9.54486 1.92544 7.9592 0.333008 6.0032 0.333008ZM4.63779 9.84179C5.54434 9.76182 6.45614 9.76182 7.3627 9.84179C7.36552 9.84204 7.36833 9.84226 7.37115 9.84246C7.85358 9.87641 8.33306 9.94413 8.80611 10.0451C8.80722 10.0454 8.80834 10.0456 8.80946 10.0458C9.13291 10.1124 9.46527 10.208 9.74119 10.3468C10.0201 10.4872 10.1955 10.6485 10.2783 10.8227C10.4041 11.0885 10.4041 11.397 10.2783 11.6627C10.1956 11.837 10.0202 11.9981 9.74195 12.1375C9.46671 12.2754 9.13508 12.3695 8.81333 12.433C8.80943 12.4338 8.80553 12.4346 8.80165 12.4354C8.33098 12.5406 7.85309 12.61 7.37203 12.643C7.3694 12.6431 7.36678 12.6433 7.36416 12.6436C6.62561 12.7064 5.88362 12.7179 5.1435 12.6779C5.1349 12.6774 5.12628 12.6772 5.11766 12.6772C4.9351 12.6772 4.81196 12.6757 4.68997 12.6512C4.66957 12.6471 4.64893 12.6443 4.62818 12.6429C4.14937 12.6104 3.67376 12.5411 3.20549 12.4356C3.20253 12.435 3.19955 12.4343 3.19658 12.4337C3.19514 12.4334 3.1937 12.4331 3.19227 12.4328C2.86803 12.3694 2.53657 12.2753 2.26147 12.1375C1.98479 11.9989 1.80755 11.8376 1.72144 11.6611C1.65974 11.5296 1.62783 11.3859 1.62802 11.2404L1.62801 11.238C1.62748 11.0962 1.65877 10.9562 1.71954 10.8283C1.80238 10.6643 1.98091 10.5011 2.2631 10.356C2.54124 10.2129 2.8745 10.111 3.19103 10.0458C3.19227 10.0456 3.19351 10.0453 3.19476 10.045C3.66748 9.94372 4.14674 9.87604 4.62895 9.84249C4.6319 9.84228 4.63484 9.84205 4.63779 9.84179ZM4.55809 8.87998C5.51775 8.79558 6.48293 8.79559 7.44259 8.88C7.96761 8.91715 8.48942 8.9909 9.00426 9.10073C9.36656 9.17545 9.78997 9.29187 10.1717 9.48399C10.551 9.67485 10.9355 9.96404 11.1461 10.408L11.1462 10.4083C11.3962 10.9363 11.3962 11.5492 11.1462 12.0772L11.1461 12.0774C10.9355 12.5215 10.5509 12.8108 10.171 13.0011C9.79 13.192 9.36764 13.3068 9.00458 13.3788C8.4899 13.4935 7.96739 13.5693 7.44142 13.6056C6.66432 13.6715 5.88364 13.6838 5.10487 13.6423H5.10253C4.94368 13.6423 4.74505 13.6424 4.53406 13.6038C4.01842 13.5673 3.50621 13.4921 3.00173 13.3788C2.63552 13.3068 2.2133 13.1919 1.83245 13.0011C1.45189 12.8105 1.06938 12.5219 0.856043 12.0808C0.855379 12.0794 0.854722 12.078 0.854071 12.0767C0.730695 11.8153 0.666803 11.5296 0.667002 11.2404C0.666101 10.9515 0.730515 10.6662 0.855413 10.406C0.856422 10.4039 0.857446 10.4018 0.858485 10.3997C1.06952 9.97584 1.45058 9.68956 1.82496 9.49697C2.20444 9.30175 2.62689 9.17694 2.99604 9.10076C3.51093 8.99051 4.0329 8.91673 4.55809 8.87998Z" fill="#989BA5"/>
</svg>
