<svg width="20" height="20" viewBox="0 0 20 20" fill="none" xmlns="http://www.w3.org/2000/svg">
<path d="M3 20H9C9.26522 20 9.51957 19.8946 9.70711 19.7071C9.89464 19.5196 10 19.2652 10 19C10 18.7348 9.89464 18.4804 9.70711 18.2929C9.51957 18.1054 9.26522 18 9 18H3C2.73478 18 2.48043 17.8946 2.29289 17.7071C2.10536 17.5196 2 17.2652 2 17L2 3C2 2.73478 2.10536 2.48043 2.29289 2.29289C2.48043 2.10536 2.73478 2 3 2H9C9.26522 2 9.51957 1.89464 9.70711 1.70711C9.89464 1.51957 10 1.26522 10 1C10 0.734783 9.89464 0.480429 9.70711 0.292892C9.51957 0.105356 9.26522 0 9 0H3C2.20435 0 1.44129 0.316071 0.878681 0.878679C0.316072 1.44129 1.90735e-06 2.20435 1.90735e-06 3L1.90735e-06 17C1.90735e-06 17.7956 0.316072 18.5587 0.878681 19.1213C1.44129 19.6839 2.20435 20 3 20Z" fill="#272B36"/>
<path d="M14.2932 6.70643C14.1977 6.61419 14.1215 6.50384 14.0691 6.38184C14.0167 6.25983 13.9891 6.12861 13.988 5.99583C13.9868 5.86305 14.0121 5.73138 14.0624 5.60848C14.1127 5.48558 14.1869 5.37393 14.2808 5.28004C14.3747 5.18614 14.4864 5.11189 14.6093 5.06161C14.7322 5.01133 14.8638 4.98603 14.9966 4.98718C15.1294 4.98834 15.2606 5.01592 15.3826 5.06833C15.5046 5.12074 15.615 5.19692 15.7072 5.29243L19.7072 9.29243C19.8947 9.47996 20 9.73427 20 9.99943C20 10.2646 19.8947 10.5189 19.7072 10.7064L15.7072 14.7064C15.615 14.8019 15.5046 14.8781 15.3826 14.9305C15.2606 14.9829 15.1294 15.0105 14.9966 15.0117C14.8638 15.0128 14.7322 14.9875 14.6093 14.9373C14.4864 14.887 14.3747 14.8127 14.2808 14.7188C14.1869 14.6249 14.1127 14.5133 14.0624 14.3904C14.0121 14.2675 13.9868 14.1358 13.988 14.003C13.9891 13.8703 14.0167 13.739 14.0691 13.617C14.1215 13.495 14.1977 13.3847 14.2932 13.2924L16.5862 10.9994L5.0002 10.9994C4.73498 10.9994 4.48063 10.8941 4.29309 10.7065C4.10556 10.519 4.0002 10.2646 4.0002 9.99943C4.0002 9.73422 4.10556 9.47986 4.29309 9.29233C4.48063 9.10479 4.73498 8.99943 5.0002 8.99943L16.5862 8.99943L14.2932 6.70643Z" fill="#272B36"/>
</svg>
