<svg width="19" height="20" viewBox="0 0 19 20" fill="none" xmlns="http://www.w3.org/2000/svg">
<path d="M14.7035 0H3.62987C1.62502 0 0 1.53731 0 3.44014V19.1822C0 19.85 0.808134 20.2406 1.37845 19.8354L4.83983 17.375H14.7035C16.7083 17.375 18.3333 15.8377 18.3333 13.9349V3.44014C18.3333 1.54008 16.7112 0 14.7035 0V0ZM8.30502 13.0023H4.55265C4.07679 13.0023 3.69112 12.6368 3.69112 12.1858C3.69112 11.7348 4.07679 11.3693 4.55265 11.3693H8.30502C8.78089 11.3693 9.16655 11.7348 9.16655 12.1858C9.16655 12.6368 8.78089 13.0023 8.30502 13.0023ZM13.7807 9.50412H4.55265C4.07679 9.50412 3.69112 9.1384 3.69112 8.68763C3.69112 8.23664 4.07679 7.87113 4.55265 7.87113H13.7807C14.2563 7.87113 14.6422 8.23664 14.6422 8.68763C14.6422 9.1384 14.2565 9.50412 13.7807 9.50412V9.50412ZM13.7807 6.00573H4.55265C4.07679 6.00573 3.69112 5.64022 3.69112 5.18923C3.69112 4.73845 4.07679 4.37273 4.55265 4.37273H13.7807C14.2563 4.37273 14.6422 4.73845 14.6422 5.18923C14.6422 5.64022 14.2565 6.00573 13.7807 6.00573V6.00573Z" fill="#272B36"/>
</svg>
