<svg width="20" height="20" viewBox="0 0 20 20" fill="none" xmlns="http://www.w3.org/2000/svg">
<path fill-rule="evenodd" clip-rule="evenodd" d="M2.49935 1.66797C2.03912 1.66797 1.66602 2.04107 1.66602 2.5013C1.66602 2.96154 2.03912 3.33464 2.49935 3.33464H3.32483V17.6605C3.32483 17.9702 3.6508 18.1716 3.92784 18.0331L6.28549 16.8543C6.52009 16.737 6.79624 16.737 7.03084 16.8543L8.8735 17.7756C9.57725 18.1276 10.4058 18.1276 11.1095 17.7756L12.9522 16.8543C13.1868 16.737 13.4629 16.737 13.6975 16.8543L16.0552 18.0331C16.3322 18.1716 16.6582 17.9702 16.6582 17.6605V3.33464H17.4994C17.9596 3.33464 18.3327 2.96154 18.3327 2.5013C18.3327 2.04107 17.9596 1.66797 17.4994 1.66797H16.6582H3.32483H2.49935ZM5.4011 3.33464H14.5818C14.8086 3.33838 14.9914 3.52347 14.9914 3.75124V15.0245C14.9914 15.3062 14.6949 15.4896 14.4428 15.3636C13.739 15.0117 12.9105 15.0117 12.2068 15.3636L10.3641 16.2848C10.1295 16.4022 9.85336 16.4022 9.61877 16.2848L7.77614 15.3636C7.07232 15.0117 6.24389 15.0117 5.54007 15.3636C5.28802 15.4896 4.99144 15.3062 4.99144 15.0245V3.75124C4.99144 3.52347 5.17422 3.33838 5.4011 3.33464ZM6.66584 5.83452C6.66584 5.37429 7.03894 5.00119 7.49918 5.00119H9.16584C9.62609 5.00119 9.99918 5.37429 9.99918 5.83452C9.99918 6.29475 9.62609 6.66785 9.16584 6.66785H7.49918C7.03894 6.66785 6.66584 6.29475 6.66584 5.83452ZM12.499 5.00119C12.0388 5.00119 11.6657 5.37429 11.6657 5.83452C11.6657 6.29475 12.0388 6.66785 12.499 6.66785C12.9593 6.66785 13.3323 6.29475 13.3323 5.83452C13.3323 5.37429 12.9593 5.00119 12.499 5.00119ZM7.49918 8.3344C7.03894 8.3344 6.66584 8.70749 6.66584 9.16774C6.66584 9.62799 7.03894 10.0011 7.49918 10.0011H9.16584C9.62609 10.0011 9.99918 9.62799 9.99918 9.16774C9.99918 8.70749 9.62609 8.3344 9.16584 8.3344H7.49918ZM12.499 8.3344C12.0388 8.3344 11.6657 8.70749 11.6657 9.16774C11.6657 9.62799 12.0388 10.0011 12.499 10.0011C12.9593 10.0011 13.3323 9.62799 13.3323 9.16774C13.3323 8.70749 12.9593 8.3344 12.499 8.3344ZM7.49918 11.6676C7.03894 11.6676 6.66584 12.0407 6.66584 12.501C6.66584 12.9612 7.03894 13.3343 7.49918 13.3343H9.16584C9.62609 13.3343 9.99918 12.9612 9.99918 12.501C9.99918 12.0407 9.62609 11.6676 9.16584 11.6676H7.49918ZM12.499 11.6676C12.0388 11.6676 11.6657 12.0407 11.6657 12.501C11.6657 12.9612 12.0388 13.3343 12.499 13.3343C12.9593 13.3343 13.3323 12.9612 13.3323 12.501C13.3323 12.0407 12.9593 11.6676 12.499 11.6676Z" fill="white"/>
</svg>
