<svg width="18" height="20" viewBox="0 0 18 20" fill="none" xmlns="http://www.w3.org/2000/svg">
<path d="M8.18173 20C9.66351 20 10.903 18.9241 11.1877 17.5H5.17578C5.46057 18.9241 6.7001 20 8.18173 20V20Z" fill="#272B36"/>
<path d="M13.9191 9.99951C13.9158 9.99951 13.9125 10.0003 13.9092 10.0003C10.752 10.0003 8.18212 7.38354 8.18212 4.16699C8.18212 3.28275 8.38181 2.44687 8.72952 1.69522C8.54945 1.67783 8.36698 1.66699 8.18212 1.66699C5.01916 1.66699 2.45501 4.27853 2.45501 7.50027V9.82358C2.45501 11.4727 1.74565 13.0294 0.501176 14.1011C0.0863509 14.4619 -0.0977663 15.0369 0.0511454 15.5978C0.224626 16.2503 0.857875 16.667 1.52229 16.667H14.8379C15.535 16.667 16.192 16.2069 16.3335 15.5111C16.4431 14.9728 16.255 14.4352 15.8451 14.0844C14.6554 13.0687 13.9674 11.576 13.9191 9.99951Z" fill="#272B36"/>
<path d="M18 4.16672C18 6.4679 16.1685 8.33328 13.9091 8.33328C11.6498 8.33328 9.81836 6.4679 9.81836 4.16672C9.81836 1.86554 11.6498 0 13.9091 0C16.1685 0 18 1.86554 18 4.16672Z" fill="#D63126"/>
</svg>
