<svg width="23" height="20" viewBox="0 0 23 20" fill="none" xmlns="http://www.w3.org/2000/svg">
<path fill-rule="evenodd" clip-rule="evenodd" d="M3.83808 17.0711C5.8937 18.9598 8.62683 20 11.5339 20C14.441 20 17.1742 18.9599 19.2298 17.0711C21.2854 15.1823 22.4175 12.6711 22.4175 10C22.4175 7.32891 21.2854 4.81766 19.2298 2.92891C17.1741 1.04016 14.441 0 11.5339 0C8.62683 0 5.89366 1.04012 3.83808 2.92891C1.78249 4.8177 0.650391 7.32891 0.650391 10C0.650391 12.6711 1.78245 15.1823 3.83808 17.0711ZM9.52633 7.8125C9.52633 8.67406 10.4269 9.375 11.5339 9.375C13.5265 9.375 15.1476 10.6367 15.1476 12.1875C15.1476 13.5235 13.9441 14.6441 12.337 14.9291V15.625C12.337 15.9702 11.9775 16.25 11.5339 16.25C11.0904 16.25 10.7309 15.9702 10.7309 15.625V14.9291C9.1237 14.6441 7.92025 13.5235 7.92025 12.1875C7.92025 11.8423 8.27976 11.5625 8.72329 11.5625C9.16682 11.5625 9.52633 11.8423 9.52633 12.1875C9.52633 13.0491 10.4269 13.75 11.5339 13.75C12.6409 13.75 13.5415 13.0491 13.5415 12.1875C13.5415 11.3259 12.6409 10.625 11.5339 10.625C9.54134 10.625 7.92025 9.36332 7.92025 7.8125C7.92025 6.47652 9.1237 5.35594 10.7309 5.07086V4.375C10.7309 4.02984 11.0904 3.75 11.5339 3.75C11.9775 3.75 12.337 4.02984 12.337 4.375V5.07086C13.9441 5.35594 15.1476 6.47652 15.1476 7.8125C15.1476 8.15766 14.7881 8.4375 14.3446 8.4375C13.901 8.4375 13.5415 8.15766 13.5415 7.8125C13.5415 6.95094 12.6409 6.25 11.5339 6.25C10.4269 6.25 9.52633 6.95094 9.52633 7.8125Z" fill="#545761"/>
</svg>
