<svg width="19" height="17" viewBox="0 0 19 17" fill="none" xmlns="http://www.w3.org/2000/svg">
<path d="M16.6736 6.5572C17.362 6.5572 18.0274 6.64588 18.657 6.81047V1.45646C18.657 0.653348 17.9253 0 17.0259 0H12.583V5.50645C12.583 5.70485 12.4719 5.89006 12.2869 5.99994C12.1763 6.06563 12.0481 6.09915 11.9191 6.09915C11.8322 6.09915 11.7452 6.08402 11.6627 6.05318L9.6536 5.30211L7.64451 6.05318C7.43975 6.12984 7.20543 6.10982 7.02043 5.99994C6.83543 5.89006 6.72433 5.70485 6.72433 5.50645V0H2.28151C1.38209 0 0.650391 0.653348 0.650391 1.45646V14.622C0.650391 15.4251 1.38209 16.0785 2.28151 16.0785H10.5846C9.96099 15.1379 9.60229 14.0415 9.60229 12.8715C9.60229 9.38976 12.7745 6.5572 16.6736 6.5572V6.5572Z" fill="#545761"/>
</svg>
