<svg width="18" height="18" viewBox="0 0 18 18" fill="none" xmlns="http://www.w3.org/2000/svg">
<path fill-rule="evenodd" clip-rule="evenodd" d="M17.3262 7.31129C17.3773 7.76985 16.9985 8.14504 16.5371 8.14504H10.6892C10.2278 8.14504 9.85375 7.77102 9.85375 7.3096V1.46166C9.85375 1.00028 10.2289 0.621449 10.6875 0.67261C11.3886 0.750839 12.0767 0.92753 12.7311 1.19858C13.6433 1.57643 14.4721 2.13027 15.1704 2.82844C15.8685 3.52663 16.4223 4.35549 16.8002 5.26771C17.0713 5.92209 17.248 6.61016 17.3262 7.31129ZM7.35178 2.34084C7.81034 2.28968 8.18553 2.66851 8.18553 3.1299V8.97784C8.18553 9.43924 8.55954 9.81326 9.02094 9.81326H14.8689C15.3303 9.81326 15.7091 10.1884 15.6579 10.647C15.5249 11.8391 15.1081 12.9864 14.4371 13.9904C13.611 15.2269 12.4367 16.1906 11.0629 16.7597C9.68895 17.3288 8.17717 17.4777 6.71869 17.1876C5.26019 16.8975 3.92047 16.1813 2.86895 15.1299C1.81743 14.0783 1.10133 12.7386 0.811224 11.2801C0.521108 9.82161 0.670005 8.30984 1.23908 6.93595C1.80816 5.56207 2.77186 4.38779 4.00832 3.56162C5.01238 2.89072 6.1597 2.47385 7.35178 2.34084Z" fill="#2753B8"/>
</svg>
