<svg width="20" height="20" viewBox="0 0 20 20" fill="none" xmlns="http://www.w3.org/2000/svg">
<path fill-rule="evenodd" clip-rule="evenodd" d="M16.2541 6.90609C16.331 7.09188 16.3982 7.28116 16.4554 7.47316H12.5221V3.53983C12.714 3.59707 12.9033 3.66425 13.0891 3.74121C13.7987 4.03509 14.4433 4.46585 14.9863 5.00888C15.5294 5.55192 15.9601 6.19658 16.2541 6.90609ZM17.5372 9.14502C17.9986 9.14502 18.3774 8.76983 18.3262 8.31135C18.2481 7.61016 18.0714 6.92209 17.8003 6.26771C17.4224 5.35549 16.8686 4.52663 16.1704 3.82844C15.4722 3.13027 14.6434 2.57643 13.7312 2.19858C13.0768 1.92753 12.3887 1.75084 11.6876 1.67261C11.229 1.62145 10.8538 2.00028 10.8538 2.46166V8.7273C10.8538 8.95805 11.0409 9.14502 11.2715 9.14502H17.5372ZM5.93324 5.95141C6.42191 5.6249 6.95419 5.37574 7.51134 5.20962V10.3961C7.51134 11.5496 8.44643 12.4846 9.59989 12.4846H14.7863C14.6203 13.0418 14.3711 13.5741 14.0446 14.0628C13.402 15.0244 12.4887 15.7739 11.4201 16.2165C10.3515 16.6592 9.17567 16.775 8.04131 16.5494C6.90693 16.3237 5.86491 15.7668 5.04707 14.9489C4.22922 14.1311 3.67226 13.0891 3.44662 11.9547C3.22097 10.8203 3.33678 9.64447 3.7794 8.57588C4.22201 7.50731 4.97156 6.59399 5.93324 5.95141ZM9.18479 4.13146C9.18479 3.67007 8.80961 3.29124 8.35104 3.3424C7.15897 3.47541 6.01165 3.89229 5.00759 4.56318C3.77113 5.38936 2.80743 6.56363 2.23835 7.93751C1.66927 9.31141 1.52038 10.8232 1.81049 12.2817C2.1006 13.7401 2.8167 15.0799 3.86821 16.1314C4.91974 17.1829 6.25945 17.899 7.71795 18.1892C9.17644 18.4792 10.6882 18.3304 12.0621 17.7613C13.436 17.1922 14.6103 16.2285 15.4364 14.992C16.1073 13.9879 16.5242 12.8406 16.6572 11.6485C16.7083 11.19 16.3296 10.8148 15.8682 10.8148H9.6025C9.37184 10.8148 9.18479 10.6278 9.18479 10.3971V4.13146Z" fill="white"/>
</svg>
