<svg width="14" height="18" viewBox="0 0 14 18" fill="none" xmlns="http://www.w3.org/2000/svg">
<path fill-rule="evenodd" clip-rule="evenodd" d="M9.42159 0.666016H4.87612C4.45772 0.666016 4.11854 1.0052 4.11854 1.42359C4.11854 1.84199 4.45772 2.18117 4.87612 2.18117H9.42159C9.84 2.18117 10.1792 1.84199 10.1792 1.42359C10.1792 1.0052 9.84 0.666016 9.42159 0.666016ZM2.67463 1.98131C2.6157 1.74762 2.38641 1.57452 2.16508 1.6699C1.08742 2.13432 0.333008 3.2061 0.333008 4.45409V14.3026C0.333008 15.9762 1.68973 17.3329 3.36332 17.3329H10.9391C12.6127 17.3329 13.9694 15.9762 13.9694 14.3026V4.45409C13.9694 3.2061 13.215 2.13432 12.1374 1.6699C11.916 1.57452 11.6868 1.74762 11.6278 1.98131C11.3792 2.96696 10.4868 3.69651 9.42396 3.69651H4.87848C3.81564 3.69651 2.92321 2.96696 2.67463 1.98131ZM4.12327 8.24356C4.54167 8.24356 4.88085 7.90439 4.88085 7.48601C4.88085 7.06761 4.54167 6.72843 4.12327 6.72843C3.70488 6.72843 3.36569 7.06761 3.36569 7.48601C3.36569 7.90439 3.70488 8.24356 4.12327 8.24356ZM7.14885 6.72843C6.73044 6.72843 6.39127 7.06761 6.39127 7.48601C6.39127 7.90439 6.73044 8.24356 7.14885 8.24356H10.1792C10.5976 8.24356 10.9367 7.90439 10.9367 7.48601C10.9367 7.06761 10.5976 6.72843 10.1792 6.72843H7.14885ZM6.39127 10.5116C6.39127 10.0933 6.73044 9.75401 7.14885 9.75401H10.1792C10.5976 9.75401 10.9367 10.0933 10.9367 10.5116C10.9367 10.93 10.5976 11.2692 10.1792 11.2692H7.14885C6.73044 11.2692 6.39127 10.93 6.39127 10.5116ZM6.39127 13.5443C6.39127 13.1259 6.73044 12.7867 7.14885 12.7867H8.66401C9.08242 12.7867 9.42159 13.1259 9.42159 13.5443C9.42159 13.9627 9.08242 14.3019 8.66401 14.3019H7.14885C6.73044 14.3019 6.39127 13.9627 6.39127 13.5443ZM4.12327 11.2692C4.54167 11.2692 4.88085 10.93 4.88085 10.5116C4.88085 10.0933 4.54167 9.75401 4.12327 9.75401C3.70488 9.75401 3.36569 10.0933 3.36569 10.5116C3.36569 10.93 3.70488 11.2692 4.12327 11.2692ZM4.12327 14.3019C4.54167 14.3019 4.88085 13.9627 4.88085 13.5443C4.88085 13.1259 4.54167 12.7867 4.12327 12.7867C3.70488 12.7867 3.36569 13.1259 3.36569 13.5443C3.36569 13.9627 3.70488 14.3019 4.12327 14.3019Z" fill="#2753B8"/>
</svg>
