<svg width="14" height="18" viewBox="0 0 14 18" fill="none" xmlns="http://www.w3.org/2000/svg">
<path fill-rule="evenodd" clip-rule="evenodd" d="M4.87766 2.1788H9.42312C9.84153 2.1788 10.1807 2.51798 10.1807 2.93638C10.1807 3.35477 9.84153 3.69395 9.42312 3.69395H4.87766C4.45927 3.69395 4.12009 3.35477 4.12009 2.93638C4.12009 2.51798 4.45927 2.1788 4.87766 2.1788ZM2.71393 2.24875C3.00605 1.33091 3.8654 0.666016 4.88003 0.666016H9.42548C10.4403 0.666016 11.2997 1.33105 11.5917 2.24904C12.9521 2.54716 13.9703 3.75921 13.9703 5.2091V14.3C13.9703 15.9736 12.6136 17.3303 10.94 17.3303H3.36429C1.6907 17.3303 0.333984 15.9736 0.333984 14.3V5.2091C0.333984 3.75876 1.35288 2.54639 2.71393 2.24875ZM2.7805 3.8105C2.23351 4.03909 1.84914 4.57921 1.84914 5.2091V14.3C1.84914 15.1368 2.52749 15.8152 3.36429 15.8152H10.94C11.7769 15.8152 12.4552 15.1368 12.4552 14.3V5.2091C12.4552 4.57959 12.0713 4.03976 11.5248 3.81093C11.1828 4.63327 10.3717 5.21147 9.42548 5.21147H4.88003C3.93369 5.21147 3.12244 4.63307 2.7805 3.8105ZM4.88181 7.48183C4.88181 7.90024 4.54263 8.23941 4.12423 8.23941C3.70584 8.23941 3.36666 7.90024 3.36666 7.48183C3.36666 7.06343 3.70584 6.72425 4.12423 6.72425C4.54263 6.72425 4.88181 7.06343 4.88181 7.48183ZM7.1498 6.72425C6.73139 6.72425 6.39222 7.06343 6.39222 7.48183C6.39222 7.90024 6.73139 8.23941 7.1498 8.23941H10.1801C10.5985 8.23941 10.9377 7.90024 10.9377 7.48183C10.9377 7.06343 10.5985 6.72425 10.1801 6.72425H7.1498ZM6.39222 10.5145C6.39222 10.0961 6.73139 9.75692 7.1498 9.75692H10.1801C10.5985 9.75692 10.9377 10.0961 10.9377 10.5145C10.9377 10.9329 10.5985 11.2721 10.1801 11.2721H7.1498C6.73139 11.2721 6.39222 10.9329 6.39222 10.5145ZM6.39222 13.5472C6.39222 13.1288 6.73139 12.7896 7.1498 12.7896H8.66495C9.08336 12.7896 9.42253 13.1288 9.42253 13.5472C9.42253 13.9656 9.08336 14.3047 8.66495 14.3047H7.1498C6.73139 14.3047 6.39222 13.9656 6.39222 13.5472ZM4.12423 11.2721C4.54263 11.2721 4.88181 10.9329 4.88181 10.5145C4.88181 10.0961 4.54263 9.75692 4.12423 9.75692C3.70584 9.75692 3.36666 10.0961 3.36666 10.5145C3.36666 10.9329 3.70584 11.2721 4.12423 11.2721ZM4.12423 14.3047C4.54263 14.3047 4.88181 13.9656 4.88181 13.5472C4.88181 13.1288 4.54263 12.7896 4.12423 12.7896C3.70584 12.7896 3.36666 13.1288 3.36666 13.5472C3.36666 13.9656 3.70584 14.3047 4.12423 14.3047Z" fill="white"/>
</svg>
