<svg width="18" height="20" viewBox="0 0 18 20" fill="none" xmlns="http://www.w3.org/2000/svg">
<path d="M4 5V17C4 17.5523 4.44772 18 5 18H13C13.5523 18 14 17.5523 14 17V5H4ZM3 3H15C15.5523 3 16 3.44772 16 4V17C16 18.6569 14.6569 20 13 20H5C3.34315 20 2 18.6569 2 17V4C2 3.44772 2.44772 3 3 3Z" fill="#989BA5"/>
<path d="M1 5C0.447715 5 0 4.55228 0 4C0 3.44771 0.447715 3 1 3H17C17.5523 3 18 3.44771 18 4C18 4.55228 17.5523 5 17 5H1Z" fill="#989BA5"/>
<path d="M7 2C6.44772 2 6 1.55228 6 0.999998C6 0.447714 6.44772 0 7 0H11C11.5523 0 12 0.447714 12 0.999998C12 1.55228 11.5523 2 11 2H7Z" fill="#989BA5"/>
<path d="M6 8C6 7.44771 6.44771 7 7 7C7.55228 7 8 7.44771 8 8V14C8 14.5523 7.55228 15 7 15C6.44771 15 6 14.5523 6 14V8Z" fill="#989BA5"/>
<path d="M10 8C10 7.44771 10.4477 7 11 7C11.5523 7 12 7.44771 12 8V14C12 14.5523 11.5523 15 11 15C10.4477 15 10 14.5523 10 14V8Z" fill="#989BA5"/>
</svg>
