<svg width="22" height="22" viewBox="0 0 22 22" fill="none" xmlns="http://www.w3.org/2000/svg">
<path fill-rule="evenodd" clip-rule="evenodd" d="M6.00039 0.900391C5.59996 0.900391 5.27539 1.22501 5.27539 1.62539V2.46289H3.57852C2.10169 2.46289 0.900391 3.66419 0.900391 5.14102V18.4223C0.900391 19.8991 2.10169 21.1004 3.57852 21.1004H18.4223C19.8991 21.1004 21.1004 19.8991 21.1004 18.4223V5.14102C21.1004 3.66419 19.8991 2.46289 18.4223 2.46289H16.7254V1.62539C16.7254 1.22501 16.4008 0.900391 16.0004 0.900391C15.6 0.900391 15.2754 1.22501 15.2754 1.62539V2.46289H6.72539V1.62539C6.72539 1.22501 6.40082 0.900391 6.00039 0.900391ZM2.35039 5.14102C2.35039 4.4639 2.9014 3.91289 3.57852 3.91289H5.27539V4.43789C5.27539 4.83827 5.59996 5.16289 6.00039 5.16289C6.40082 5.16289 6.72539 4.83827 6.72539 4.43789V3.91289H15.2754V4.43789C15.2754 4.83827 15.6 5.16289 16.0004 5.16289C16.4008 5.16289 16.7254 4.83827 16.7254 4.43789V3.91289H18.4223C19.0994 3.91289 19.6504 4.4639 19.6504 5.14102V6.52539H2.35039V5.14102ZM2.35039 18.4223V7.97539H19.6504V18.4223C19.6504 19.0994 19.0994 19.6504 18.4223 19.6504H3.57852C2.9014 19.6504 2.35039 19.0994 2.35039 18.4223ZM4.28164 10.9004C3.88123 10.9004 3.55664 11.225 3.55664 11.6254C3.55664 12.0258 3.88123 12.3504 4.28164 12.3504H7.1332C7.53361 12.3504 7.8582 12.0258 7.8582 11.6254C7.8582 11.225 7.53361 10.9004 7.1332 10.9004H4.28164ZM9.55508 10.9004C9.15467 10.9004 8.83008 11.225 8.83008 11.6254C8.83008 12.0258 9.15467 12.3504 9.55508 12.3504H12.4066C12.807 12.3504 13.1316 12.0258 13.1316 11.6254C13.1316 11.225 12.807 10.9004 12.4066 10.9004H9.55508ZM14.8285 10.9004C14.4281 10.9004 14.1035 11.225 14.1035 11.6254C14.1035 12.0258 14.4281 12.3504 14.8285 12.3504H17.6801C18.0805 12.3504 18.4051 12.0258 18.4051 11.6254C18.4051 11.225 18.0805 10.9004 17.6801 10.9004H14.8285ZM4.28164 15.2754C3.88123 15.2754 3.55664 15.6 3.55664 16.0004C3.55664 16.4008 3.88123 16.7254 4.28164 16.7254H7.1332C7.53361 16.7254 7.8582 16.4008 7.8582 16.0004C7.8582 15.6 7.53361 15.2754 7.1332 15.2754H4.28164ZM9.55508 15.2754C9.15467 15.2754 8.83008 15.6 8.83008 16.0004C8.83008 16.4008 9.15467 16.7254 9.55508 16.7254H12.4066C12.807 16.7254 13.1316 16.4008 13.1316 16.0004C13.1316 15.6 12.807 15.2754 12.4066 15.2754H9.55508ZM14.8285 15.2754C14.4281 15.2754 14.1035 15.6 14.1035 16.0004C14.1035 16.4008 14.4281 16.7254 14.8285 16.7254H17.6801C18.0805 16.7254 18.4051 16.4008 18.4051 16.0004C18.4051 15.6 18.0805 15.2754 17.6801 15.2754H14.8285Z" fill="#989BA5"/>
</svg>
