<svg width="14" height="14" viewBox="0 0 14 14" fill="none" xmlns="http://www.w3.org/2000/svg">
<path fill-rule="evenodd" clip-rule="evenodd" d="M12.3309 6.99759C12.3309 9.94312 9.94312 12.3309 6.99759 12.3309C4.05207 12.3309 1.66426 9.94312 1.66426 6.99759C1.66426 4.05207 4.05207 1.66426 6.99759 1.66426C9.94312 1.66426 12.3309 4.05207 12.3309 6.99759ZM13.6663 6.99967C13.6663 10.6815 10.6815 13.6663 6.99967 13.6663C3.31777 13.6663 0.333008 10.6815 0.333008 6.99967C0.333008 3.31777 3.31777 0.333008 6.99967 0.333008C10.6815 0.333008 13.6663 3.31777 13.6663 6.99967ZM7.66634 3.66842C7.66634 3.30024 7.36787 3.00176 6.99967 3.00176C6.63147 3.00176 6.33301 3.30024 6.33301 3.66842V7.00176C6.33301 7.17856 6.40327 7.34816 6.52827 7.47316L8.19494 9.13982C8.45527 9.40016 8.87741 9.40016 9.13774 9.13982C9.39807 8.87949 9.39807 8.45736 9.13774 8.19702L7.66634 6.72562V3.66842Z" fill="#272B36"/>
</svg>
