<svg width="20" height="15" viewBox="0 0 20 15" fill="none" xmlns="http://www.w3.org/2000/svg">
<path d="M1.21582 2.43135H18.7845C19.4548 2.43135 20 1.8862 20 1.21582C20 0.545438 19.4548 0 18.7845 0H1.21582C0.545437 0 0 0.545438 0 1.21582C0 1.8862 0.545437 2.43135 1.21582 2.43135Z" fill="#272B36"/>
<path d="M18.7845 6.27612H1.21582C0.545437 6.27612 0 6.82156 0 7.49194C0 8.16232 0.545437 8.70747 1.21582 8.70747H18.7845C19.4548 8.70747 20 8.16232 20 7.49194C20 6.82156 19.4548 6.27612 18.7845 6.27612Z" fill="#272B36"/>
<path d="M18.7845 12.5457H1.21582C0.545437 12.5457 0 13.0914 0 13.7618C0 14.4321 0.545437 14.9773 1.21582 14.9773H18.7845C19.4548 14.9773 20 14.4321 20 13.7618C20 13.0914 19.4548 12.5457 18.7845 12.5457Z" fill="#272B36"/>
</svg>
