<svg width="16" height="16" viewBox="0 0 16 16" fill="none" xmlns="http://www.w3.org/2000/svg">
<path d="M7.99444 2.00001C6.95271 1.99847 5.92861 2.26883 5.02339 2.78438C4.11817 3.29992 3.36317 4.04278 2.83303 4.93954C2.3029 5.83629 2.01598 6.85587 2.00065 7.89749C1.98532 8.93911 2.2421 9.9667 2.74561 10.8787L2.02302 13.2873C1.99865 13.3687 1.99363 13.4546 2.00836 13.5382C2.0231 13.6219 2.05719 13.7009 2.10791 13.7691C2.15862 13.8372 2.22457 13.8925 2.30047 13.9307C2.37637 13.9688 2.46014 13.9886 2.54507 13.9886C2.59821 13.9885 2.65107 13.9808 2.70202 13.9657L5.11064 13.2431C5.91183 13.6851 6.80355 13.9377 7.71747 13.9817C8.63139 14.0257 9.54325 13.8599 10.3832 13.497C11.2231 13.1341 11.9688 12.5837 12.5632 11.888C13.1575 11.1924 13.5847 10.3699 13.812 9.4836C14.0394 8.59732 14.0608 7.67075 13.8747 6.7749C13.6885 5.87906 13.2998 5.03771 12.7382 4.31533C12.1767 3.59295 11.4572 3.00871 10.6349 2.60739C9.81265 2.20606 8.90942 1.99829 7.99444 2.00001V2.00001ZM7.99444 12.8987C7.10096 12.8976 6.22491 12.6514 5.46158 12.1871C5.37616 12.1357 5.2784 12.1086 5.17875 12.1086C5.12577 12.1084 5.07305 12.1161 5.02236 12.1315L3.35812 12.6312L3.85728 10.9664C3.87895 10.8939 3.8853 10.8177 3.87592 10.7427C3.86653 10.6676 3.84163 10.5954 3.80279 10.5305C3.24328 9.6033 3.00665 8.51693 3.12988 7.44107C3.25311 6.36521 3.72925 5.36047 4.48392 4.58385C5.23858 3.80722 6.22925 3.30246 7.30113 3.14843C8.37301 2.9944 9.46573 3.19977 10.4085 3.73246C11.3514 4.26516 12.0912 5.09516 12.5124 6.09278C12.9335 7.09041 13.0124 8.19946 12.7366 9.24664C12.4608 10.2938 11.8459 11.2202 10.988 11.8809C10.13 12.5416 9.07734 12.8996 7.99444 12.8987V12.8987Z" fill="#C9CACF"/>
</svg>
