<svg width="17" height="16" viewBox="0 0 17 16" fill="none" xmlns="http://www.w3.org/2000/svg">
<path fill-rule="evenodd" clip-rule="evenodd" d="M5.92206 4.89006C5.92206 3.45871 7.07746 2.29838 8.50271 2.29838C9.92796 2.29838 11.0834 3.45871 11.0834 4.89006C11.0834 6.3214 9.92796 7.48174 8.50271 7.48174C7.07746 7.48174 5.92206 6.3214 5.92206 4.89006ZM8.50271 1.33325C6.5467 1.33325 4.96105 2.92569 4.96105 4.89006C4.96105 6.85443 6.5467 8.44686 8.50271 8.44686C10.4587 8.44686 12.0444 6.85443 12.0444 4.89006C12.0444 2.92569 10.4587 1.33325 8.50271 1.33325ZM7.1373 10.842C8.04386 10.7621 8.95565 10.7621 9.86221 10.842C9.86503 10.8423 9.86784 10.8425 9.87066 10.8427C10.3531 10.8767 10.8326 10.9444 11.3056 11.0454C11.3067 11.0456 11.3079 11.0458 11.309 11.0461C11.6324 11.1127 11.9648 11.2082 12.2407 11.3471C12.5196 11.4874 12.6951 11.6487 12.7778 11.823C12.9036 12.0887 12.9036 12.3972 12.7778 12.663C12.6951 12.8372 12.5197 12.9984 12.2415 13.1378C11.9662 13.2757 11.6346 13.3697 11.3128 13.4332C11.3089 13.434 11.305 13.4348 11.3012 13.4357C10.8305 13.5409 10.3526 13.6102 9.87154 13.6432C9.86892 13.6434 9.86629 13.6436 9.86367 13.6438C9.12513 13.7067 8.38314 13.7181 7.64302 13.6781C7.63441 13.6777 7.62579 13.6774 7.61717 13.6774C7.43461 13.6774 7.31147 13.676 7.18949 13.6515C7.16909 13.6474 7.14844 13.6446 7.12769 13.6432C6.64889 13.6106 6.17327 13.5413 5.705 13.4359C5.70204 13.4352 5.69907 13.4346 5.69609 13.434C5.69465 13.4337 5.69322 13.4334 5.69178 13.4331C5.36754 13.3696 5.03608 13.2756 4.76098 13.1378C4.48431 12.9991 4.30706 12.8379 4.22096 12.6613C4.15925 12.5298 4.12734 12.3861 4.12753 12.2407L4.12753 12.2382C4.12699 12.0965 4.15828 11.9565 4.21905 11.8286C4.30189 11.6645 4.48042 11.5014 4.76261 11.3562C5.04075 11.2131 5.37401 11.1113 5.69054 11.0461C5.69178 11.0458 5.69303 11.0455 5.69427 11.0453C6.16699 10.944 6.64625 10.8763 7.12846 10.8427C7.13141 10.8425 7.13435 10.8423 7.1373 10.842ZM7.0576 9.88022C8.01726 9.79582 8.98244 9.79583 9.9421 9.88024C10.4671 9.91739 10.9889 9.99115 11.5038 10.101C11.8661 10.1757 12.2895 10.2921 12.6712 10.4842C13.0505 10.6751 13.435 10.9643 13.6456 11.4083L13.6457 11.4085C13.8957 11.9365 13.8957 12.5495 13.6457 13.0774L13.6456 13.0777C13.435 13.5217 13.0504 13.811 12.6705 14.0014C12.2895 14.1922 11.8672 14.3071 11.5041 14.3791C10.9894 14.4938 10.4669 14.5696 9.94093 14.6058C9.16384 14.6718 8.38315 14.6841 7.60438 14.6425H7.60204C7.44319 14.6426 7.24457 14.6426 7.03357 14.6041C6.51793 14.5676 6.00572 14.4924 5.50124 14.3791C5.13503 14.307 4.71282 14.1922 4.33197 14.0014C3.9514 13.8107 3.56889 13.5221 3.35556 13.081C3.35489 13.0797 3.35423 13.0783 3.35358 13.0769C3.23021 12.8155 3.16631 12.5299 3.16651 12.2406C3.16561 11.9518 3.23003 11.6665 3.35493 11.4062C3.35593 11.4041 3.35696 11.402 3.358 11.4C3.56903 10.9761 3.9501 10.6898 4.32447 10.4972C4.70395 10.302 5.1264 10.1772 5.49555 10.101C6.01044 9.99075 6.53241 9.91697 7.0576 9.88022Z" fill="#C9CACF"/>
</svg>
