<svg width="16" height="16" viewBox="0 0 16 16" fill="none" xmlns="http://www.w3.org/2000/svg">
<path d="M14.5753 6.21897C14.4617 5.85725 14.2347 5.5417 13.9278 5.31899C13.621 5.09628 13.2506 4.97823 12.8714 4.98231H10.4442L9.707 2.68453C9.59107 2.32284 9.36326 2.00731 9.05643 1.78345C8.7496 1.55959 8.3796 1.43896 7.99978 1.43896C7.61997 1.43896 7.24996 1.55959 6.94313 1.78345C6.6363 2.00731 6.40849 2.32284 6.29256 2.68453L5.55534 4.98231H3.12811C2.75019 4.98284 2.38211 5.1028 2.07644 5.32503C1.77076 5.54726 1.54314 5.86041 1.42607 6.21974C1.30901 6.57907 1.30849 6.96621 1.42459 7.32586C1.54069 7.6855 1.76748 7.99925 2.07256 8.22231L4.04811 9.66675L3.297 11.9929C3.17562 12.3536 3.17408 12.744 3.29262 13.1057C3.41116 13.4674 3.64342 13.7811 3.95478 14.0001C4.26081 14.2261 4.63167 14.3471 5.01209 14.3452C5.39251 14.3433 5.76214 14.2186 6.06589 13.9895L7.99978 12.5662L9.93423 13.9879C10.2397 14.2126 10.6086 14.3346 10.9878 14.3364C11.367 14.3383 11.737 14.2199 12.0447 13.9981C12.3523 13.7764 12.5817 13.4629 12.6999 13.1026C12.8182 12.7423 12.8191 12.3537 12.7026 11.9929L11.9514 9.66675L13.9292 8.22231C14.2378 8.00205 14.4672 7.6883 14.5836 7.3275C14.7 6.96669 14.6971 6.578 14.5753 6.21897ZM13.2737 7.32508L10.9714 9.00786C10.8769 9.07684 10.8065 9.17393 10.7704 9.28527C10.7343 9.39661 10.7343 9.51651 10.7703 9.62786L11.6453 12.3334C11.6896 12.4706 11.6892 12.6184 11.6443 12.7554C11.5993 12.8924 11.512 13.0116 11.395 13.0958C11.278 13.1801 11.1373 13.2251 10.9931 13.2244C10.8489 13.2237 10.7087 13.1772 10.5926 13.0918L8.32867 11.4251C8.23332 11.355 8.11809 11.3173 7.99978 11.3173C7.88147 11.3173 7.76625 11.355 7.67089 11.4251L5.407 13.0918C5.29094 13.1784 5.1503 13.2258 5.00548 13.2271C4.86067 13.2284 4.71919 13.1836 4.60158 13.0991C4.48396 13.0146 4.39631 12.8948 4.35133 12.7571C4.30636 12.6195 4.3064 12.4711 4.35145 12.3334L5.22923 9.62786C5.26529 9.51651 5.26526 9.39661 5.22915 9.28527C5.19303 9.17393 5.12268 9.07684 5.02811 9.00786L2.72589 7.32508C2.60995 7.24019 2.5238 7.12083 2.47975 6.98405C2.4357 6.84727 2.436 6.70007 2.48061 6.56347C2.52522 6.42687 2.61185 6.30786 2.72814 6.22345C2.84443 6.13903 2.98442 6.09352 3.12811 6.09342H5.96145C6.07907 6.09341 6.19365 6.05608 6.2887 5.98679C6.38374 5.9175 6.45435 5.81984 6.49034 5.70786L7.35145 3.02397C7.39565 2.88663 7.48229 2.76686 7.59889 2.68189C7.7155 2.59692 7.85606 2.55114 8.00034 2.55114C8.14462 2.55114 8.28517 2.59692 8.40178 2.68189C8.51839 2.76686 8.60502 2.88663 8.64923 3.02397L9.51034 5.70786C9.54633 5.81984 9.61693 5.9175 9.71198 5.98679C9.80702 6.05608 9.92161 6.09341 10.0392 6.09342H12.8726C13.0163 6.09352 13.1562 6.13903 13.2725 6.22345C13.3888 6.30786 13.4755 6.42687 13.5201 6.56347C13.5647 6.70007 13.565 6.84727 13.5209 6.98405C13.4769 7.12083 13.3907 7.24019 13.2748 7.32508H13.2737Z" fill="#C9CACF"/>
</svg>
