<svg width="14" height="18" viewBox="0 0 14 18" fill="none" xmlns="http://www.w3.org/2000/svg">
<path fill-rule="evenodd" clip-rule="evenodd" d="M10.9377 2.1788H3.36192C2.52512 2.1788 1.84677 2.85716 1.84677 3.69395V14.3C1.84677 15.1368 2.52512 15.8152 3.36192 15.8152H10.9377C11.7745 15.8152 12.4528 15.1368 12.4528 14.3V3.69395C12.4528 2.85716 11.7745 2.1788 10.9377 2.1788ZM3.36429 0.666016C1.6907 0.666016 0.333984 2.02273 0.333984 3.69632V14.3024C0.333984 15.9759 1.6907 17.3327 3.36429 17.3327H10.94C12.6136 17.3327 13.9703 15.9759 13.9703 14.3024V3.69632C13.9703 2.02273 12.6136 0.666016 10.94 0.666016H3.36429ZM4.12423 3.69869C3.70584 3.69869 3.36666 4.03787 3.36666 4.45626C3.36666 4.87466 3.70584 5.21384 4.12423 5.21384H10.1848C10.6032 5.21384 10.9424 4.87466 10.9424 4.45626C10.9424 4.03787 10.6032 3.69869 10.1848 3.69869H4.12423ZM4.88181 7.48183C4.88181 7.90024 4.54263 8.23941 4.12423 8.23941C3.70584 8.23941 3.36666 7.90024 3.36666 7.48183C3.36666 7.06343 3.70584 6.72425 4.12423 6.72425C4.54263 6.72425 4.88181 7.06343 4.88181 7.48183ZM7.1498 8.23941C7.56821 8.23941 7.90737 7.90024 7.90737 7.48183C7.90737 7.06343 7.56821 6.72425 7.1498 6.72425C6.73139 6.72425 6.39222 7.06343 6.39222 7.48183C6.39222 7.90024 6.73139 8.23941 7.1498 8.23941ZM10.1825 8.23941C10.6009 8.23941 10.94 7.90024 10.94 7.48183C10.94 7.06343 10.6009 6.72425 10.1825 6.72425C9.76406 6.72425 9.42489 7.06343 9.42489 7.48183C9.42489 7.90024 9.76406 8.23941 10.1825 8.23941ZM4.12423 11.2721C4.54263 11.2721 4.88181 10.9329 4.88181 10.5145C4.88181 10.0961 4.54263 9.75692 4.12423 9.75692C3.70584 9.75692 3.36666 10.0961 3.36666 10.5145C3.36666 10.9329 3.70584 11.2721 4.12423 11.2721ZM7.1498 11.2721C7.56821 11.2721 7.90737 10.9329 7.90737 10.5145C7.90737 10.0961 7.56821 9.75692 7.1498 9.75692C6.73139 9.75692 6.39222 10.0961 6.39222 10.5145C6.39222 10.9329 6.73139 11.2721 7.1498 11.2721ZM10.1825 11.2721C10.6009 11.2721 10.94 10.9329 10.94 10.5145C10.94 10.0961 10.6009 9.75692 10.1825 9.75692C9.76406 9.75692 9.42489 10.0961 9.42489 10.5145C9.42489 10.9329 9.76406 11.2721 10.1825 11.2721ZM4.12423 14.3047C4.54263 14.3047 4.88181 13.9656 4.88181 13.5472C4.88181 13.1288 4.54263 12.7896 4.12423 12.7896C3.70584 12.7896 3.36666 13.1288 3.36666 13.5472C3.36666 13.9656 3.70584 14.3047 4.12423 14.3047ZM7.1498 14.3047C7.56821 14.3047 7.90737 13.9656 7.90737 13.5472C7.90737 13.1288 7.56821 12.7896 7.1498 12.7896C6.73139 12.7896 6.39222 13.1288 6.39222 13.5472C6.39222 13.9656 6.73139 14.3047 7.1498 14.3047ZM10.1825 14.3047C10.6009 14.3047 10.94 13.9656 10.94 13.5472C10.94 13.1288 10.6009 12.7896 10.1825 12.7896C9.76406 12.7896 9.42489 13.1288 9.42489 13.5472C9.42489 13.9656 9.76406 14.3047 10.1825 14.3047Z" fill="white"/>
</svg>
