<svg width="20" height="20" viewBox="0 0 20 20" fill="none" xmlns="http://www.w3.org/2000/svg">
<path fill-rule="evenodd" clip-rule="evenodd" d="M14.6868 2.9681H16.1842C17.3689 2.9681 18.3327 3.93187 18.3327 5.11654V6.41862H17.1283H2.87044H1.66602V5.11654C1.66602 3.93187 2.62978 2.9681 3.81445 2.9681H5.31185V2.18685C5.31185 1.89922 5.54502 1.66602 5.83268 1.66602C6.12035 1.66602 6.35352 1.89922 6.35352 2.18685V2.9681H13.6452V2.18685C13.6452 1.89922 13.8784 1.66602 14.166 1.66602C14.4537 1.66602 14.6868 1.89922 14.6868 2.18685V2.9681ZM18.3327 7.39518L1.66602 7.39518L1.66602 16.1842C1.66602 17.3689 2.62979 18.3327 3.81445 18.3327H16.1842C17.3689 18.3327 18.3327 17.3689 18.3327 16.1842V7.39518ZM4.40039 9.99935C4.11274 9.99935 3.87956 10.2325 3.87956 10.5202C3.87956 10.8078 4.11274 11.041 4.40039 11.041H6.77669C7.06434 11.041 7.29753 10.8078 7.29753 10.5202C7.29753 10.2325 7.06434 9.99935 6.77669 9.99935H4.40039ZM8.79492 9.99935C8.50727 9.99935 8.27409 10.2325 8.27409 10.5202C8.27409 10.8078 8.50727 11.041 8.79492 11.041H11.1712C11.4589 11.041 11.6921 10.8078 11.6921 10.5202C11.6921 10.2325 11.4589 9.99935 11.1712 9.99935H8.79492ZM12.6686 10.5202C12.6686 10.2325 12.9018 9.99935 13.1895 9.99935H15.5658C15.8534 9.99935 16.0866 10.2325 16.0866 10.5202C16.0866 10.8078 15.8534 11.041 15.5658 11.041H13.1895C12.9018 11.041 12.6686 10.8078 12.6686 10.5202ZM4.40039 13.6452C4.11274 13.6452 3.87956 13.8784 3.87956 14.166C3.87956 14.4537 4.11274 14.6869 4.40039 14.6869H6.77669C7.06434 14.6869 7.29753 14.4537 7.29753 14.166C7.29753 13.8784 7.06434 13.6452 6.77669 13.6452H4.40039ZM8.27409 14.166C8.27409 13.8784 8.50727 13.6452 8.79492 13.6452H11.1712C11.4589 13.6452 11.6921 13.8784 11.6921 14.166C11.6921 14.4537 11.4589 14.6869 11.1712 14.6869H8.79492C8.50727 14.6869 8.27409 14.4537 8.27409 14.166ZM13.1895 13.6452C12.9018 13.6452 12.6686 13.8784 12.6686 14.166C12.6686 14.4537 12.9018 14.6869 13.1895 14.6869H15.5658C15.8534 14.6869 16.0866 14.4537 16.0866 14.166C16.0866 13.8784 15.8534 13.6452 15.5658 13.6452H13.1895Z" fill="#2753B8"/>
</svg>
