<svg width="18" height="18" viewBox="0 0 18 18" fill="none" xmlns="http://www.w3.org/2000/svg">
<path d="M1.59194 17.3327H7.1475C7.65676 17.3327 8.07342 16.916 8.07342 16.4068V1.59194C8.07342 1.08268 7.65676 0.666016 7.1475 0.666016H1.59194C1.08268 0.666016 0.666016 1.08268 0.666016 1.59194L0.666016 16.4068C0.666016 16.916 1.08268 17.3327 1.59194 17.3327ZM10.8512 17.3327H16.4068C16.916 17.3327 17.3327 16.916 17.3327 16.4068V8.99935C17.3327 8.49009 16.916 8.07342 16.4068 8.07342H10.8512C10.3419 8.07342 9.92528 8.49009 9.92528 8.99935V16.4068C9.92528 16.916 10.3419 17.3327 10.8512 17.3327ZM9.92528 1.59194V5.29565C9.92528 5.8049 10.3419 6.22157 10.8512 6.22157H16.4068C16.916 6.22157 17.3327 5.8049 17.3327 5.29565V1.59194C17.3327 1.08268 16.916 0.666016 16.4068 0.666016H10.8512C10.3419 0.666016 9.92528 1.08268 9.92528 1.59194Z" fill="#2753B8"/>
</svg>
