<svg width="18" height="18" viewBox="0 0 18 18" fill="none" xmlns="http://www.w3.org/2000/svg">
<path fill-rule="evenodd" clip-rule="evenodd" d="M0.666992 2.16174C0.666992 1.33763 1.3386 0.666016 2.16272 0.666016H7.29092C8.11504 0.666016 8.78665 1.33763 8.78665 2.16174V15.837C8.78665 16.6611 8.11504 17.3327 7.29092 17.3327H2.16272C1.3386 17.3327 0.666992 16.6611 0.666992 15.837V2.16174ZM2.16272 1.94807C2.04666 1.94807 1.94904 2.04569 1.94904 2.16174V15.837C1.94904 15.953 2.04666 16.0506 2.16272 16.0506H7.29092C7.40698 16.0506 7.5046 15.953 7.5046 15.837V2.16174C7.5046 2.04569 7.40698 1.94807 7.29092 1.94807H2.16272ZM9.214 2.16174C9.214 1.33763 9.88561 0.666016 10.7097 0.666016H15.8379C16.662 0.666016 17.3337 1.33763 17.3337 2.16174V5.58055C17.3337 6.40466 16.662 7.07627 15.8379 7.07627H10.7097C9.88561 7.07627 9.214 6.40466 9.214 5.58055V2.16174ZM10.7097 1.94807C10.5937 1.94807 10.4961 2.04569 10.4961 2.16174V5.58055C10.4961 5.6966 10.5937 5.79422 10.7097 5.79422H15.8379C15.954 5.79422 16.0516 5.6966 16.0516 5.58055V2.16174C16.0516 2.04569 15.954 1.94807 15.8379 1.94807H10.7097ZM9.214 8.99935C9.214 8.17524 9.88561 7.50362 10.7097 7.50362H15.8379C16.662 7.50362 17.3337 8.17524 17.3337 8.99935V15.837C17.3337 16.6611 16.662 17.3327 15.8379 17.3327H10.7097C9.88561 17.3327 9.214 16.6611 9.214 15.837V8.99935ZM10.7097 8.78567C10.5937 8.78567 10.4961 8.88329 10.4961 8.99935V15.837C10.4961 15.953 10.5937 16.0506 10.7097 16.0506H15.8379C15.954 16.0506 16.0516 15.953 16.0516 15.837V8.99935C16.0516 8.88329 15.954 8.78567 15.8379 8.78567H10.7097Z" fill="white"/>
</svg>
