<svg width="14" height="18" viewBox="0 0 14 18" fill="none" xmlns="http://www.w3.org/2000/svg">
<path fill-rule="evenodd" clip-rule="evenodd" d="M0.333984 3.69632C0.333984 2.02273 1.6907 0.666016 3.36429 0.666016H9.68482C10.4885 0.666016 11.2593 0.985281 11.8276 1.55357L13.0828 2.80877C13.6511 3.37705 13.9703 4.14783 13.9703 4.95151V14.3024C13.9703 15.9759 12.6136 17.3327 10.94 17.3327H3.36429C1.6907 17.3327 0.333984 15.9759 0.333984 14.3024V3.69632ZM12.4528 5.96668V14.3C12.4528 15.1368 11.7745 15.8152 10.9377 15.8152H3.36192C2.52512 15.8152 1.84677 15.1368 1.84677 14.3V3.69395C1.84677 2.85716 2.52512 2.1788 3.36192 2.1788H8.66495V3.69395C8.66495 4.94914 9.68245 5.96668 10.9377 5.96668H12.4528ZM12.3735 4.45271C12.2992 4.23877 12.177 4.04216 12.0138 3.87895L10.7586 2.62376C10.5954 2.46055 10.3988 2.33842 10.1848 2.26403V3.69513C10.1848 4.11353 10.524 4.45271 10.9424 4.45271H12.3735ZM4.87707 8.99698C4.45867 8.99698 4.1195 9.33615 4.1195 9.75456C4.1195 10.173 4.45867 10.5121 4.87707 10.5121H9.42253C9.84093 10.5121 10.1801 10.173 10.1801 9.75456C10.1801 9.33615 9.84093 8.99698 9.42253 8.99698H4.87707ZM4.1195 12.7872C4.1195 12.3688 4.45867 12.0297 4.87707 12.0297H7.1498C7.56821 12.0297 7.90737 12.3688 7.90737 12.7872C7.90737 13.2056 7.56821 13.5448 7.1498 13.5448H4.87707C4.45867 13.5448 4.1195 13.2056 4.1195 12.7872Z" fill="white"/>
</svg>
