<svg width="14" height="18" viewBox="0 0 14 18" fill="none" xmlns="http://www.w3.org/2000/svg">
<path fill-rule="evenodd" clip-rule="evenodd" d="M7.90925 0.666992C8.32766 0.666992 8.66683 1.00617 8.66683 1.42457V3.6973C8.66683 4.95248 9.68433 5.97002 10.9396 5.97002H13.2123C13.6307 5.97002 13.9699 6.3092 13.9699 6.7276V15.0609C13.9699 16.3162 12.9524 17.3337 11.6971 17.3337H2.60622C1.35103 17.3337 0.333496 16.3162 0.333496 15.0609V2.93972C0.333496 1.68453 1.35103 0.666992 2.60622 0.666992H7.90925ZM4.87658 8.99796C4.45818 8.99796 4.11901 9.33712 4.11901 9.75553C4.11901 10.1739 4.45818 10.5131 4.87658 10.5131H9.42204C9.84045 10.5131 10.1796 10.1739 10.1796 9.75553C10.1796 9.33712 9.84045 8.99796 9.42204 8.99796H4.87658ZM4.87658 12.0306C4.45818 12.0306 4.11901 12.3698 4.11901 12.7882C4.11901 13.2066 4.45818 13.5458 4.87658 13.5458H7.14931C7.56772 13.5458 7.90689 13.2066 7.90689 12.7882C7.90689 12.3698 7.56772 12.0306 7.14931 12.0306H4.87658ZM10.1843 1.4215C10.1843 1.0031 10.539 0.636602 10.9248 0.798406C11.0918 0.868451 11.2471 0.969103 11.3857 1.1077L13.5284 3.25045C13.6671 3.38904 13.7677 3.54428 13.8378 3.71132C13.9996 4.09717 13.6331 4.4518 13.2147 4.4518H10.9419C10.5235 4.4518 10.1843 4.11263 10.1843 3.69422V1.4215Z" fill="#2753B8"/>
</svg>
