<svg width="18" height="18" viewBox="0 0 18 18" fill="none" xmlns="http://www.w3.org/2000/svg">
<path fill-rule="evenodd" clip-rule="evenodd" d="M15.2545 5.90609C15.3315 6.09188 15.3986 6.28116 15.4559 6.47316H11.5226V2.53983C11.7145 2.59707 11.9038 2.66425 12.0896 2.74121C12.7992 3.03509 13.4438 3.46585 13.9868 4.00888C14.5299 4.55192 14.9606 5.19658 15.2545 5.90609ZM16.5377 8.14502C16.9991 8.14502 17.3779 7.76983 17.3267 7.31135C17.2485 6.61016 17.0718 5.92209 16.8008 5.26771C16.4229 4.35549 15.8691 3.52663 15.1709 2.82844C14.4727 2.13027 13.6439 1.57643 12.7317 1.19858C12.0773 0.92753 11.3892 0.750839 10.6881 0.67261C10.2295 0.621449 9.85432 1.00028 9.85432 1.46166V7.7273C9.85432 7.95805 10.0414 8.14502 10.272 8.14502H16.5377ZM4.93373 4.95141C5.42239 4.6249 5.95468 4.37574 6.51183 4.20962V9.39609C6.51183 10.5496 7.44692 11.4846 8.60038 11.4846H13.7868C13.6208 12.0418 13.3715 12.5741 13.0451 13.0628C12.4025 14.0244 11.4892 14.7739 10.4206 15.2165C9.35201 15.6592 8.17616 15.775 7.0418 15.5494C5.90741 15.3237 4.8654 14.7668 4.04756 13.9489C3.22971 13.1311 2.67274 12.0891 2.4471 10.9547C2.22146 9.82032 2.33726 8.64447 2.77989 7.57588C3.2225 6.50731 3.97205 5.59399 4.93373 4.95141ZM8.18528 3.13146C8.18528 2.67007 7.81009 2.29124 7.35153 2.3424C6.15945 2.47541 5.01214 2.89229 4.00807 3.56318C2.77162 4.38936 1.80792 5.56363 1.23884 6.93751C0.669761 8.31141 0.520864 9.82319 0.81098 11.2817C1.10109 12.7401 1.81718 14.0799 2.8687 15.1314C3.92023 16.1829 5.25994 16.899 6.71844 17.1892C8.17693 17.4792 9.6887 17.3304 11.0626 16.7613C12.4365 16.1922 13.6107 15.2285 14.4369 13.992C15.1078 12.9879 15.5247 11.8406 15.6577 10.6485C15.7088 10.19 15.33 9.81483 14.8686 9.81483H8.60299C8.37233 9.81483 8.18528 9.62778 8.18528 9.39712V3.13146Z" fill="white"/>
</svg>
