<svg id="Layer_1" data-name="Layer 1" xmlns="http://www.w3.org/2000/svg" width="16.67" height="16.41" viewBox="0 0 16.67 16.41"><defs><style>.cls-1{fill:#2753b8;fill-rule:evenodd;}</style></defs><path class="cls-1" d="M2.5,1.67a.83.83,0,0,0,0,1.66h.82V17.66a.42.42,0,0,0,.61.37l2.36-1.18a.87.87,0,0,1,.74,0l1.84.93a2.52,2.52,0,0,0,2.24,0L13,16.85a.89.89,0,0,1,.75,0L16.06,18a.41.41,0,0,0,.6-.37V3.33h.84a.83.83,0,1,0,0-1.66H2.5ZM5.4,3.33h9.18a.42.42,0,0,1,.41.42V15a.38.38,0,0,1-.55.34,2.5,2.5,0,0,0-2.23,0l-1.85.92a.81.81,0,0,1-.74,0l-1.84-.92a2.52,2.52,0,0,0-2.24,0A.38.38,0,0,1,5,15V3.75A.42.42,0,0,1,5.4,3.33Zm1.27,2.5A.83.83,0,0,1,7.5,5H9.17a.83.83,0,0,1,.83.83.84.84,0,0,1-.83.84H7.5A.84.84,0,0,1,6.67,5.83ZM12.5,5a.83.83,0,0,0-.83.83.83.83,0,1,0,1.66,0A.83.83,0,0,0,12.5,5Zm-5,3.33a.84.84,0,0,0-.83.84A.83.83,0,0,0,7.5,10H9.17A.83.83,0,0,0,10,9.17a.84.84,0,0,0-.83-.84Zm5,0a.84.84,0,0,0-.83.84.83.83,0,1,0,1.66,0A.84.84,0,0,0,12.5,8.33Zm-5,3.34a.83.83,0,0,0,0,1.66H9.17a.83.83,0,1,0,0-1.66Zm5,0a.83.83,0,1,0,.83.83A.83.83,0,0,0,12.5,11.67Z" transform="translate(-1.67 -1.67)"/></svg>