<svg width="18" height="18" viewBox="0 0 18 18" fill="none" xmlns="http://www.w3.org/2000/svg">
<path fill-rule="evenodd" clip-rule="evenodd" d="M1.49935 0.666016C1.03912 0.666016 0.666016 1.03912 0.666016 1.49935C0.666016 1.95958 1.03912 2.33268 1.49935 2.33268H2.32483V16.6585C2.32483 16.9683 2.6508 17.1697 2.92784 17.0312L5.28549 15.8524C5.52009 15.735 5.79624 15.735 6.03084 15.8524L7.8735 16.7737C8.57725 17.1256 9.40575 17.1256 10.1095 16.7737L11.9522 15.8524C12.1868 15.735 12.4629 15.735 12.6975 15.8524L15.0552 17.0312C15.3322 17.1697 15.6582 16.9683 15.6582 16.6585V2.33268H16.4994C16.9596 2.33268 17.3327 1.95958 17.3327 1.49935C17.3327 1.03912 16.9596 0.666016 16.4994 0.666016H15.6582H2.32483H1.49935ZM4.4011 2.33268H13.5818C13.8086 2.33642 13.9914 2.52151 13.9914 2.74929V14.0225C13.9914 14.3043 13.6949 14.4876 13.4428 14.3616C12.739 14.0097 11.9105 14.0097 11.2068 14.3616L9.36411 15.2829C9.12953 15.4002 8.85336 15.4002 8.61877 15.2829L6.77614 14.3616C6.07232 14.0097 5.24389 14.0097 4.54007 14.3616C4.28802 14.4876 3.99144 14.3043 3.99144 14.0225V2.74929C3.99144 2.52151 4.17422 2.33642 4.4011 2.33268ZM5.66584 4.83257C5.66584 4.37233 6.03894 3.99923 6.49918 3.99923H8.16584C8.62609 3.99923 8.99918 4.37233 8.99918 4.83257C8.99918 5.2928 8.62609 5.6659 8.16584 5.6659H6.49918C6.03894 5.6659 5.66584 5.2928 5.66584 4.83257ZM11.499 3.99923C11.0388 3.99923 10.6657 4.37233 10.6657 4.83257C10.6657 5.2928 11.0388 5.6659 11.499 5.6659C11.9593 5.6659 12.3323 5.2928 12.3323 4.83257C12.3323 4.37233 11.9593 3.99923 11.499 3.99923ZM6.49918 7.33245C6.03894 7.33245 5.66584 7.70553 5.66584 8.16578C5.66584 8.62603 6.03894 8.99912 6.49918 8.99912H8.16584C8.62609 8.99912 8.99918 8.62603 8.99918 8.16578C8.99918 7.70553 8.62609 7.33245 8.16584 7.33245H6.49918ZM11.499 7.33245C11.0388 7.33245 10.6657 7.70553 10.6657 8.16578C10.6657 8.62603 11.0388 8.99912 11.499 8.99912C11.9593 8.99912 12.3323 8.62603 12.3323 8.16578C12.3323 7.70553 11.9593 7.33245 11.499 7.33245ZM6.49918 10.6657C6.03894 10.6657 5.66584 11.0388 5.66584 11.499C5.66584 11.9593 6.03894 12.3323 6.49918 12.3323H8.16584C8.62609 12.3323 8.99918 11.9593 8.99918 11.499C8.99918 11.0388 8.62609 10.6657 8.16584 10.6657H6.49918ZM11.499 10.6657C11.0388 10.6657 10.6657 11.0388 10.6657 11.499C10.6657 11.9593 11.0388 12.3323 11.499 12.3323C11.9593 12.3323 12.3323 11.9593 12.3323 11.499C12.3323 11.0388 11.9593 10.6657 11.499 10.6657Z" fill="white"/>
</svg>
