<svg width="18" height="14" viewBox="0 0 18 14" fill="none" xmlns="http://www.w3.org/2000/svg">
<path fill-rule="evenodd" clip-rule="evenodd" d="M2.93686 1.84482H15.0581C15.4765 1.84482 15.8156 2.184 15.8156 2.60239V4.11754H2.17929V2.60239C2.17929 2.184 2.51847 1.84482 2.93686 1.84482ZM0.666504 5.63269V4.11754V2.60476C0.666504 1.34957 1.68404 0.332031 2.93923 0.332031H15.0604C16.3157 0.332031 17.3332 1.34957 17.3332 2.60476V4.11754V5.63269V11.6957C17.3332 12.9509 16.3157 13.9684 15.0604 13.9684H2.93923C1.68404 13.9684 0.666504 12.9509 0.666504 11.6957V5.63269ZM15.8156 5.63269V11.6933C15.8156 12.1117 15.4765 12.4509 15.0581 12.4509H2.93686C2.51847 12.4509 2.17929 12.1117 2.17929 11.6933V5.63269H15.8156ZM4.83554 10.9357C5.46314 10.9357 5.9719 10.4269 5.9719 9.79936C5.9719 9.17179 5.46314 8.663 4.83554 8.663C4.20794 8.663 3.69917 9.17179 3.69917 9.79936C3.69917 10.4269 4.20794 10.9357 4.83554 10.9357ZM9.75741 9.79936C9.75741 10.4269 9.24862 10.9357 8.62105 10.9357C7.99347 10.9357 7.48468 10.4269 7.48468 9.79936C7.48468 9.17179 7.99347 8.663 8.62105 8.663C9.24862 8.663 9.75741 9.17179 9.75741 9.79936Z" fill="white"/>
</svg>
