<svg id="Layer_1" data-name="Layer 1" xmlns="http://www.w3.org/2000/svg" width="16.67" height="13.64" viewBox="0 0 16.67 13.64"><defs><style>.cls-1{fill:#2753b8;fill-rule:evenodd;}</style></defs><path class="cls-1" d="M2.94,1.84H15.06a.76.76,0,0,1,.76.76V4.12H2.18V2.6A.76.76,0,0,1,2.94,1.84ZM.67,5.63v-3A2.27,2.27,0,0,1,2.94.33H15.06A2.27,2.27,0,0,1,17.33,2.6v9.1A2.27,2.27,0,0,1,15.06,14H2.94A2.27,2.27,0,0,1,.67,11.7Zm15.15,0v6.06a.76.76,0,0,1-.76.76H2.94a.76.76,0,0,1-.76-.76V5.63Zm-11,5.31A1.14,1.14,0,1,0,3.7,9.8,1.14,1.14,0,0,0,4.84,10.94ZM9.76,9.8A1.14,1.14,0,1,1,8.62,8.66,1.14,1.14,0,0,1,9.76,9.8Z" transform="translate(-0.67 -0.33)"/></svg>