<svg width="18" height="17" viewBox="0 0 18 17" fill="none" xmlns="http://www.w3.org/2000/svg">
<path d="M17.2187 6.77384C17.0766 6.32168 16.7928 5.92725 16.4093 5.64886C16.0257 5.37047 15.5627 5.22291 15.0888 5.228H12.0548L11.1333 2.35578C10.9883 1.90367 10.7036 1.50926 10.3201 1.22944C9.93651 0.949613 9.47401 0.798828 8.99924 0.798828C8.52447 0.798828 8.06197 0.949613 7.67843 1.22944C7.29489 1.50926 7.01013 1.90367 6.86521 2.35578L5.94368 5.228H2.90966C2.43726 5.22868 1.97715 5.37862 1.59506 5.65641C1.21297 5.9342 0.928434 6.32564 0.782101 6.7748C0.635768 7.22397 0.63512 7.70789 0.78025 8.15744C0.92538 8.607 1.20886 8.99919 1.59021 9.278L4.05966 11.0836L3.12077 13.9912C2.96904 14.4422 2.96712 14.9301 3.11529 15.3822C3.26346 15.8344 3.55378 16.2265 3.94299 16.5002C4.32552 16.7827 4.78909 16.934 5.26462 16.9317C5.74015 16.9293 6.20218 16.7733 6.58188 16.487L8.99924 14.7079L11.4173 16.485C11.7991 16.7658 12.2602 16.9184 12.7342 16.9207C13.2082 16.923 13.6708 16.7749 14.0553 16.4978C14.4399 16.2207 14.7267 15.8287 14.8744 15.3783C15.0222 14.9279 15.0234 14.4423 14.8777 13.9912L13.9388 11.0836L16.411 9.278C16.7967 9.00269 17.0836 8.6105 17.229 8.15949C17.3745 7.70848 17.3709 7.22263 17.2187 6.77384ZM15.5916 8.15648L12.7138 10.2599C12.5956 10.3462 12.5077 10.4675 12.4625 10.6067C12.4174 10.7459 12.4174 10.8958 12.4624 11.0349L13.5562 14.4169C13.6115 14.5884 13.6111 14.7731 13.5548 14.9443C13.4986 15.1156 13.3895 15.2646 13.2433 15.3699C13.097 15.4753 12.9212 15.5315 12.7409 15.5306C12.5607 15.5297 12.3854 15.4716 12.2402 15.3648L9.41035 13.2815C9.29116 13.1939 9.14713 13.1467 8.99924 13.1467C8.85135 13.1467 8.70732 13.1939 8.58813 13.2815L5.75827 15.3648C5.61318 15.4731 5.43739 15.5323 5.25637 15.534C5.07534 15.5356 4.8985 15.4796 4.75148 15.3739C4.60446 15.2683 4.4949 15.1186 4.43868 14.9465C4.38246 14.7745 4.38251 14.5889 4.43882 14.4169L5.53604 11.0349C5.58113 10.8958 5.58109 10.7459 5.53595 10.6067C5.4908 10.4675 5.40286 10.3462 5.28466 10.2599L2.40688 8.15648C2.26195 8.05036 2.15426 7.90116 2.0992 7.73019C2.04413 7.55921 2.04451 7.37521 2.10027 7.20446C2.15603 7.03371 2.26432 6.88495 2.40968 6.77943C2.55504 6.67391 2.73003 6.61702 2.90966 6.61689H6.45132C6.59835 6.61689 6.74158 6.57022 6.86038 6.48361C6.97919 6.397 7.06744 6.27492 7.11243 6.13495L8.18882 2.78009C8.24407 2.60841 8.35237 2.45869 8.49813 2.35248C8.64389 2.24627 8.81958 2.18905 8.99993 2.18905C9.18028 2.18905 9.35598 2.24627 9.50174 2.35248C9.64749 2.45869 9.75579 2.60841 9.81104 2.78009L10.8874 6.13495C10.9324 6.27492 11.0207 6.397 11.1395 6.48361C11.2583 6.57022 11.4015 6.61689 11.5485 6.61689H15.0902C15.2698 6.61702 15.4448 6.67391 15.5902 6.77943C15.7355 6.88495 15.8438 7.03371 15.8996 7.20446C15.9554 7.37521 15.9557 7.55921 15.9007 7.73019C15.8456 7.90116 15.7379 8.05036 15.593 8.15648H15.5916Z" fill="white"/>
</svg>
