<svg width="18" height="18" viewBox="0 0 18 18" fill="none" xmlns="http://www.w3.org/2000/svg">
<path d="M1.61284 9.42575L4.16687 11.291L3.19691 14.2949C3.04016 14.7608 3.03818 15.2648 3.19125 15.732C3.34432 16.1991 3.64426 16.6042 4.04634 16.8869C4.44153 17.1788 4.92044 17.3351 5.4117 17.3327C5.90297 17.3302 6.38029 17.1691 6.77254 16.8733L9.26989 15.0353L11.768 16.8712C12.1624 17.1613 12.6388 17.3189 13.1285 17.3213C13.6181 17.3237 14.096 17.1707 14.4933 16.8844C14.8906 16.5981 15.1868 16.1932 15.3395 15.7279C15.4921 15.2626 15.4933 14.7609 15.3429 14.2949L14.3729 11.291L16.9269 9.42575C17.3209 9.13771 17.6138 8.73254 17.7637 8.26811C17.9136 7.80368 17.913 7.30375 17.7618 6.83972C17.6106 6.37569 17.3167 5.97131 16.9219 5.68432C16.5272 5.39734 16.0519 5.24244 15.5638 5.24174H12.4265L11.4745 2.27449C11.3248 1.80741 11.0306 1.39996 10.6344 1.11087C10.2382 0.821789 9.76037 0.666016 9.26989 0.666016C8.77941 0.666016 8.30161 0.821789 7.90538 1.11087C7.50914 1.39996 7.21496 1.80741 7.06525 2.27449L6.11323 5.24174H2.97882C2.49079 5.24244 2.01546 5.39734 1.62072 5.68432C1.22599 5.97131 0.93204 6.37569 0.780865 6.83972C0.62969 7.30375 0.629021 7.80368 0.778953 8.26811C0.928885 8.73254 1.22175 9.13771 1.61571 9.42575H1.61284Z" fill="#2753B8"/>
</svg>
