<svg width="14" height="18" viewBox="0 0 14 18" fill="none" xmlns="http://www.w3.org/2000/svg">
<path fill-rule="evenodd" clip-rule="evenodd" d="M3.77843 5.113C3.77843 3.32382 5.22268 1.8734 7.00424 1.8734C8.78581 1.8734 10.23 3.32382 10.23 5.113C10.23 6.90218 8.78581 8.3526 7.00424 8.3526C5.22268 8.3526 3.77843 6.90218 3.77843 5.113ZM7.00424 0.666992C4.55924 0.666992 2.57717 2.65754 2.57717 5.113C2.57717 7.56846 4.55924 9.559 7.00424 9.559C9.44925 9.559 11.4313 7.56846 11.4313 5.113C11.4313 2.65754 9.44925 0.666992 7.00424 0.666992ZM5.29748 12.553C6.43068 12.453 7.57042 12.453 8.70362 12.553C8.70714 12.5533 8.71066 12.5536 8.71418 12.5538C9.31722 12.5963 9.91657 12.6809 10.5079 12.8071C10.5093 12.8074 10.5107 12.8077 10.5121 12.808C10.9164 12.8913 11.3318 13.0107 11.6767 13.1843C12.0253 13.3597 12.2447 13.5613 12.3481 13.7792C12.5054 14.1113 12.5054 14.497 12.3481 14.8291C12.2447 15.0469 12.0255 15.2484 11.6777 15.4226C11.3336 15.595 10.9191 15.7126 10.5169 15.792C10.512 15.7929 10.5072 15.794 10.5023 15.795C9.91397 15.9265 9.3166 16.0132 8.71528 16.0544C8.712 16.0547 8.70872 16.0549 8.70544 16.0552C7.78226 16.1338 6.85477 16.1481 5.92962 16.0981C5.91887 16.0975 5.9081 16.0972 5.89732 16.0972C5.66912 16.0972 5.5152 16.0954 5.36271 16.0647C5.33721 16.0596 5.31141 16.0562 5.28546 16.0544C4.68696 16.0137 4.09244 15.9271 3.50711 15.7953C3.5034 15.7944 3.49969 15.7936 3.49597 15.7929C3.49417 15.7925 3.49237 15.7921 3.49058 15.7918C3.08528 15.7125 2.67095 15.5949 2.32708 15.4226C1.98124 15.2494 1.75968 15.0478 1.65205 14.8271C1.57492 14.6627 1.53503 14.4831 1.53527 14.3013L1.53526 14.2982C1.5346 14.121 1.57371 13.946 1.64967 13.7862C1.75322 13.5811 1.97638 13.3771 2.32912 13.1957C2.67679 13.0168 3.09337 12.8895 3.48903 12.808C3.49058 12.8077 3.49214 12.8074 3.49369 12.807C4.0846 12.6804 4.68366 12.5958 5.28643 12.5538C5.29011 12.5536 5.2938 12.5533 5.29748 12.553ZM5.19786 11.3507C6.39744 11.2452 7.6039 11.2452 8.80348 11.3507C9.45975 11.3972 10.112 11.4894 10.7556 11.6266C11.2084 11.72 11.7377 11.8656 12.2149 12.1057C12.689 12.3443 13.1696 12.7058 13.4328 13.2608L13.433 13.2611C13.7454 13.9211 13.7454 14.6873 13.433 15.3472L13.4328 15.3475C13.1696 15.9026 12.6888 16.2642 12.2139 16.5021C11.7377 16.7407 11.2098 16.8843 10.756 16.9743C10.1126 17.1176 9.45948 17.2124 8.80202 17.2577C7.83065 17.3402 6.85479 17.3555 5.88133 17.3036H5.8784C5.67984 17.3037 5.43156 17.3037 5.16781 17.2555C4.52326 17.2099 3.88301 17.1159 3.2524 16.9743C2.79464 16.8842 2.26687 16.7407 1.79081 16.5021C1.3151 16.2638 0.836965 15.9031 0.570298 15.3517C0.569468 15.35 0.568646 15.3483 0.567833 15.3466C0.413613 15.0198 0.333748 14.6628 0.333996 14.3012C0.33287 13.9401 0.413388 13.5835 0.569511 13.2582C0.570772 13.2556 0.572052 13.253 0.57335 13.2504C0.837143 12.7205 1.31347 12.3627 1.78144 12.1219C2.2558 11.8779 2.78385 11.7219 3.24529 11.6267C3.8889 11.4889 4.54137 11.3966 5.19786 11.3507Z" fill="white"/>
</svg>
