<svg width="14" height="18" viewBox="0 0 14 18" fill="none" xmlns="http://www.w3.org/2000/svg">
<path d="M5.20673 11.9595C6.40645 11.8628 7.61169 11.8628 8.81141 11.9595C9.46473 11.9976 10.1149 12.0793 10.7579 12.2042C12.1494 12.4859 13.0577 12.9456 13.447 13.687C13.7394 14.2656 13.7394 14.9544 13.447 15.533C13.0577 16.2744 12.1854 16.7638 10.7435 17.0158C10.101 17.1454 9.45067 17.2296 8.797 17.2679C8.19141 17.3346 7.58582 17.3346 6.97302 17.3346H5.86999C5.63929 17.305 5.4158 17.2902 5.19952 17.2902C4.54582 17.2565 3.89531 17.1748 3.25298 17.0455C1.86157 16.7786 0.953193 16.3041 0.563887 15.5627C0.4136 15.2755 0.33437 14.9547 0.333095 14.6285C0.330054 14.3004 0.406889 13.9767 0.556677 13.687C0.938774 12.9456 1.84716 12.4636 3.25298 12.2042C3.89814 12.0775 4.55087 11.9958 5.20673 11.9595ZM7.00186 0.667969C9.41871 0.667969 11.378 2.68282 11.378 5.16827C11.378 7.65371 9.41871 9.66857 7.00186 9.66857C4.58501 9.66857 2.62577 7.65371 2.62577 5.16827C2.62577 2.68282 4.58501 0.667969 7.00186 0.667969Z" fill="#2753B8"/>
</svg>
